<svg xmlns="http://www.w3.org/2000/svg" viewBox="0 0 425.2 425.2"><defs><style>.cls-1{fill:#8e0000;}.cls-2{fill:#005cff;}.cls-3{fill:#414042;}</style></defs><title>white Smise-Logo-v5 copy 21</title><g id="Layer_6" data-name="Layer 6"><path class="cls-1" d="M109,217.86c4.46.87,21.32,15.79,22.49,16.7,4.84,3.76,32.27,25.84,42.22,31.93,25,15.31,48.4,27.27,90.42,33.21,18.55,2.62,39.95.74,51.14-2.59,15.28-4.54,12.37,6.88,4.83,11.55-15.06,9.34-39.32,11.82-68.5,7.59-33.3-4.84-54.17-19.42-67.1-27.18S108.3,226.57,106,222.54C104.23,219.34,106.1,217.29,109,217.86Z"/><ellipse class="cls-2" cx="306.91" cy="219.06" rx="14.52" ry="34.96"/><path class="cls-3" d="M349.24,99.54c-12.17,21.18-28.24,41.23-46.18,60.29Q289.43,174,274.15,187.46c-10.32,8.84-21.19,17.37-32.77,25.46S217.8,229,204.56,236.15a155.1,155.1,0,0,1-44.18,15.91c-16,3.13-33.31,3.57-48.9.12-14.15-3.11-26.37-9.51-34.08-18.11-1.28-1.42-2.85-5.7.17-4.91h0a132,132,0,0,0,39.19,3.45c12.32-.84,23.42-2,37.3-5.63,12.8-3.38,23.3-7.59,35.31-12.71s23.78-11.61,35.27-18.17,22.72-13.64,33.53-21.17,21.5-15.31,31.68-23.52a452.25,452.25,0,0,0,56.3-53Z"/></g></svg>