<?xml version="1.0" encoding="UTF-8" standalone="no"?><!DOCTYPE svg PUBLIC "-//W3C//DTD SVG 1.1//EN" "http://www.w3.org/Graphics/SVG/1.1/DTD/svg11.dtd"><svg width="100%" height="100%" viewBox="0 0 481 323" version="1.1" xmlns="http://www.w3.org/2000/svg" xmlns:xlink="http://www.w3.org/1999/xlink" xml:space="preserve" xmlns:serif="http://www.serif.com/" style="fill-rule:evenodd;clip-rule:evenodd;stroke-linecap:round;stroke-linejoin:round;stroke-miterlimit:10;"><path d="M424.83,136.62l3.12,-3.12" style="fill:none;stroke:#000;stroke-width:0.18px;"/><path d="M413.01,135.72l8.58,-8.58" style="fill:none;stroke:#000;stroke-width:0.18px;"/><path d="M405.57,130.38l3.54,-3.54" style="fill:none;stroke:#000;stroke-width:0.18px;"/><path d="M411.99,111.3l7.62,-7.68" style="fill:none;stroke:#000;stroke-width:0.18px;"/><path d="M405.57,104.94l3.06,-3.06" style="fill:none;stroke:#000;stroke-width:0.18px;"/><path d="M301.47,97.08l-6,-0.96" style="fill:none;stroke:#000;stroke-width:1.02px;"/><path d="M292.41,95.64l-12.06,-1.92" style="fill:none;stroke:#000;stroke-width:1.02px;"/><path d="M277.29,93.24l-12.06,-1.92" style="fill:none;stroke:#000;stroke-width:1.02px;"/><path d="M262.17,90.84l-12.06,-1.92" style="fill:none;stroke:#000;stroke-width:1.02px;"/><path d="M247.05,88.44l-12.06,-1.86" style="fill:none;stroke:#000;stroke-width:1.02px;"/><path d="M231.93,86.1l-12.06,-1.92" style="fill:none;stroke:#000;stroke-width:1.02px;"/><path d="M216.81,83.7l-12.06,-1.92" style="fill:none;stroke:#000;stroke-width:1.02px;"/><path d="M201.69,81.3l-12.06,-1.92" style="fill:none;stroke:#000;stroke-width:1.02px;"/><path d="M186.57,78.9l-12.06,-1.92" style="fill:none;stroke:#000;stroke-width:1.02px;"/><path d="M171.45,76.5l-12.06,-1.92" style="fill:none;stroke:#000;stroke-width:1.02px;"/><path d="M156.33,74.1l-12.06,-1.92" style="fill:none;stroke:#000;stroke-width:1.02px;"/><path d="M141.21,71.7l-12.06,-1.92" style="fill:none;stroke:#000;stroke-width:1.02px;"/><path d="M126.09,69.3l-12.06,-1.92" style="fill:none;stroke:#000;stroke-width:1.02px;"/><path d="M111.03,66.9l-12.12,-1.92" style="fill:none;stroke:#000;stroke-width:1.02px;"/><path d="M95.91,64.5l-12.12,-1.92" style="fill:none;stroke:#000;stroke-width:1.02px;"/><path d="M80.79,62.1l-6.06,-0.9" style="fill:none;stroke:#000;stroke-width:1.02px;"/><path d="M301.47,79.86l-226.74,-35.88l0,124.68" style="fill:none;stroke:#000;stroke-width:1.44px;"/><path d="M103.077,133.8c8.135,0.002 14.731,-6.592 14.733,-14.727c0.002,-8.135 -6.592,-14.731 -14.727,-14.733c-8.135,-0.002 -14.731,6.592 -14.733,14.727c-0.002,8.135 6.592,14.731 14.727,14.733" style="fill:none;stroke:#000;stroke-width:1.44px;"/><path d="M74.73,168.66l170.04,0l0,-28.32l56.7,0l0,-60.48" style="fill:none;stroke:#000;stroke-width:1.44px;"/><path d="M103.078,126.84c4.292,0.001 7.771,-3.477 7.772,-7.768c0.001,-4.292 -3.477,-7.771 -7.768,-7.772c-4.292,-0.001 -7.771,3.477 -7.772,7.769c-0.001,4.291 3.477,7.77 7.768,7.771" style="fill:none;stroke:#000;stroke-width:1.44px;"/><path d="M428.25,137.52l-3.9,-1.02l-3,-0.66l-4.92,0.06l-2.28,-0.24l-2.22,0.12l-2.7,0.96l-1.68,0.66l-1.98,0.6" style="fill:none;stroke:#000;stroke-width:1.44px;"/><path d="M405.57,102l2.16,-0.12l1.68,0.06l2.7,0.18l2.34,-0.24l2.28,0.18l2.22,1.2l2.52,1.26l1.5,0.12l1.68,-0.42l3.6,-1.98" style="fill:none;stroke:#000;stroke-width:1.44px;"/><path d="M405.57,138l0,-11.16" style="fill:none;stroke:#000;stroke-width:1.44px;"/><path d="M405.57,126.84l15.78,0l6.9,6.96l0,3.72" style="fill:none;stroke:#000;stroke-width:1.44px;"/><path d="M428.25,102.24l0,2.1l-6.9,6.96l-15.78,0l0,-9.3l0,-40.8" style="fill:none;stroke:#000;stroke-width:1.44px;"/><path d="M405.57,138l0,30.66l22.68,0l0,-31.14" style="fill:none;stroke:#000;stroke-width:1.44px;"/><path d="M405.57,61.2l17.04,-17.22l5.64,0l0,58.26" style="fill:none;stroke:#000;stroke-width:1.44px;"/><path d="M428.25,133.8l0,-29.46" style="fill:none;stroke:#000;stroke-width:1.44px;"/><path d="M422.61,43.98l0,7.14" style="fill:none;stroke:#000;stroke-width:1.02px;"/><path d="M422.61,54.72l0,14.4" style="fill:none;stroke:#000;stroke-width:1.02px;"/><path d="M422.61,72.66l0,7.2l-3.42,3.48" style="fill:none;stroke:#000;stroke-width:1.02px;"/><path d="M417.51,85.02l-6.84,6.9" style="fill:none;stroke:#000;stroke-width:1.02px;"/><path d="M408.99,93.66l-3.42,3.42" style="fill:none;stroke:#000;stroke-width:1.02px;"/><path d="M422.61,79.86l1.86,0" style="fill:none;stroke:#000;stroke-width:1.02px;"/><path d="M426.39,79.86l1.86,0" style="fill:none;stroke:#000;stroke-width:1.02px;"/><path d="M405.57,140.34l4.56,0" style="fill:none;stroke:#000;stroke-width:1.02px;"/><path d="M412.41,140.34l9.06,0" style="fill:none;stroke:#000;stroke-width:1.02px;"/><path d="M423.75,140.34l4.5,0" style="fill:none;stroke:#000;stroke-width:1.02px;"/><path d="M405.57,126.84l0,-15.54" style="fill:none;stroke:#000;stroke-width:1.44px;"/><path d="M421.35,126.84l0,-15.54" style="fill:none;stroke:#000;stroke-width:1.44px;"/><path d="M21.21,298.02l-1.32,-1.5l-5.22,5.7l6.54,-4.2Z" style="fill-rule:nonzero;stroke:#000;stroke-width:0.18px;"/><path d="M68.37,300.72l-1.32,-1.56l-5.22,5.7l6.54,-4.14Z" style="fill-rule:nonzero;stroke:#000;stroke-width:0.18px;"/><path d="M25.53,283.98l0,7.38l7.38,0" style="fill:none;stroke:#000;stroke-width:1.02px;"/><path d="M19.89,296.52l1.32,1.5l-6.54,4.2l5.22,-5.7" style="fill:none;stroke:#000;stroke-width:0.72px;"/><path d="M14.67,302.22l10.86,-9.12l19.26,0" style="fill:none;stroke:#000;stroke-width:0.72px;"/><path d="M0.51,302.22l14.16,0l0,9.9" style="fill:none;stroke:#000;stroke-width:1.02px;"/><path d="M61.83,304.86l14.22,0" style="fill:none;stroke:#000;stroke-width:1.02px;"/><path d="M72.69,286.68l0,7.38l7.38,0" style="fill:none;stroke:#000;stroke-width:1.02px;"/><path d="M67.05,299.16l1.32,1.56l-6.54,4.14l5.22,-5.7" style="fill:none;stroke:#000;stroke-width:0.72px;"/><path d="M61.83,304.86l10.86,-9.12l19.32,0" style="fill:none;stroke:#000;stroke-width:0.72px;"/><path d="M61.83,304.86l0,-9.9" style="fill:none;stroke:#000;stroke-width:1.02px;"/><g transform="matrix(1,0,-0.00958,1,-65.25,-261.2)"><g transform="matrix(1,0,0.00479,1,-2.64015,0)"><rect x="98.118" y="548.142" width="2.706" height="0.886" style="fill-rule:nonzero;"/></g><g transform="matrix(1,0,0.00479,1,-2.64015,0)"><path d="M101.453,547.643c0,-0.848 0.087,-1.531 0.262,-2.048c0.174,-0.517 0.433,-0.916 0.778,-1.196c0.344,-0.281 0.777,-0.421 1.299,-0.421c0.384,0 0.722,0.078 1.012,0.233c0.291,0.154 0.53,0.378 0.72,0.67c0.189,0.292 0.337,0.647 0.445,1.066c0.107,0.42 0.161,0.985 0.161,1.696c0,0.841 -0.086,1.52 -0.259,2.037c-0.173,0.517 -0.431,0.917 -0.776,1.199c-0.344,0.282 -0.778,0.423 -1.303,0.423c-0.692,0 -1.235,-0.248 -1.63,-0.743c-0.473,-0.597 -0.709,-1.569 -0.709,-2.916Zm0.905,0c0,1.177 0.138,1.961 0.413,2.351c0.276,0.389 0.616,0.584 1.021,0.584c0.404,0 0.744,-0.196 1.02,-0.587c0.275,-0.391 0.413,-1.174 0.413,-2.348c0,-1.181 -0.138,-1.966 -0.413,-2.354c-0.276,-0.388 -0.619,-0.582 -1.03,-0.582c-0.405,0 -0.728,0.171 -0.969,0.514c-0.303,0.437 -0.455,1.244 -0.455,2.422Z" style="fill-rule:nonzero;"/><path d="M107.5,551.18l0,-1.003l1.003,0l0,1.003c0,0.369 -0.065,0.666 -0.196,0.893c-0.13,0.227 -0.337,0.402 -0.621,0.526l-0.245,-0.377c0.186,-0.081 0.323,-0.201 0.411,-0.359c0.088,-0.159 0.137,-0.386 0.147,-0.683l-0.499,0Z" style="fill-rule:nonzero;"/><path d="M109.814,549.287l0.881,-0.118c0.101,0.499 0.273,0.859 0.516,1.079c0.243,0.22 0.539,0.33 0.888,0.33c0.414,0 0.764,-0.143 1.05,-0.43c0.285,-0.287 0.428,-0.643 0.428,-1.067c0,-0.404 -0.132,-0.738 -0.397,-1c-0.264,-0.263 -0.6,-0.394 -1.007,-0.394c-0.167,0 -0.374,0.032 -0.622,0.098l0.098,-0.773c0.059,0.006 0.106,0.009 0.142,0.009c0.375,0 0.713,-0.098 1.013,-0.293c0.3,-0.196 0.45,-0.498 0.45,-0.905c0,-0.323 -0.109,-0.591 -0.328,-0.803c-0.219,-0.212 -0.501,-0.318 -0.846,-0.318c-0.343,0 -0.628,0.108 -0.857,0.323c-0.228,0.215 -0.375,0.538 -0.44,0.969l-0.881,-0.157c0.108,-0.59 0.353,-1.048 0.734,-1.372c0.382,-0.325 0.856,-0.487 1.424,-0.487c0.391,0 0.752,0.084 1.081,0.252c0.33,0.168 0.582,0.397 0.756,0.687c0.175,0.291 0.262,0.599 0.262,0.925c0,0.31 -0.083,0.592 -0.25,0.847c-0.166,0.254 -0.412,0.456 -0.738,0.606c0.424,0.098 0.753,0.301 0.988,0.609c0.235,0.309 0.352,0.694 0.352,1.158c0,0.626 -0.228,1.157 -0.685,1.592c-0.456,0.435 -1.034,0.653 -1.732,0.653c-0.629,0 -1.152,-0.187 -1.568,-0.562c-0.416,-0.376 -0.653,-0.862 -0.712,-1.458Z" style="fill-rule:nonzero;"/></g></g><g transform="matrix(1,0,-0.00958,1,-65.25,-261.2)"><g transform="matrix(1,0,0.00479,1,-2.65337,0)"><path d="M147.317,552.78l0,-1.966l-1.953,0l0,-0.822l1.953,0l0,-1.952l0.831,0l0,1.952l1.953,0l0,0.822l-1.953,0l0,1.966l-0.831,0Z" style="fill-rule:nonzero;"/></g><g transform="matrix(1,0,0.00479,1,-2.65337,0)"><path d="M151.074,550.403c0,-0.848 0.087,-1.531 0.262,-2.048c0.174,-0.517 0.434,-0.916 0.778,-1.196c0.344,-0.281 0.777,-0.421 1.299,-0.421c0.385,0 0.722,0.078 1.013,0.233c0.29,0.154 0.53,0.378 0.719,0.67c0.189,0.292 0.337,0.647 0.445,1.066c0.108,0.42 0.161,0.985 0.161,1.696c0,0.841 -0.086,1.52 -0.259,2.037c-0.173,0.517 -0.431,0.917 -0.775,1.199c-0.344,0.282 -0.779,0.423 -1.304,0.423c-0.692,0 -1.235,-0.248 -1.629,-0.743c-0.473,-0.597 -0.71,-1.569 -0.71,-2.916Zm0.905,0c0,1.177 0.138,1.961 0.414,2.351c0.275,0.389 0.615,0.584 1.02,0.584c0.404,0 0.744,-0.195 1.02,-0.587c0.276,-0.391 0.413,-1.174 0.413,-2.348c0,-1.181 -0.137,-1.966 -0.413,-2.354c-0.276,-0.388 -0.619,-0.582 -1.03,-0.582c-0.404,0 -0.727,0.171 -0.969,0.514c-0.303,0.437 -0.455,1.244 -0.455,2.422Z" style="fill-rule:nonzero;"/></g><g transform="matrix(1,0,0.00479,1,-2.65337,0)"><path d="M156.971,553.94l0,-1.003l1.003,0l0,1.003c0,0.369 -0.065,0.666 -0.195,0.893c-0.131,0.227 -0.338,0.402 -0.622,0.526l-0.244,-0.377c0.186,-0.081 0.323,-0.201 0.411,-0.359c0.088,-0.159 0.137,-0.386 0.146,-0.683l-0.499,0Z" style="fill-rule:nonzero;"/><path d="M159.286,552.047l0.88,-0.118c0.101,0.499 0.273,0.859 0.516,1.079c0.243,0.22 0.539,0.33 0.888,0.33c0.415,0 0.764,-0.143 1.05,-0.43c0.285,-0.287 0.428,-0.643 0.428,-1.067c0,-0.404 -0.132,-0.738 -0.396,-1c-0.265,-0.263 -0.601,-0.394 -1.008,-0.394c-0.167,0 -0.374,0.032 -0.622,0.098l0.098,-0.773c0.059,0.006 0.106,0.009 0.142,0.009c0.375,0 0.713,-0.098 1.013,-0.293c0.3,-0.196 0.45,-0.498 0.45,-0.905c0,-0.323 -0.109,-0.591 -0.328,-0.803c-0.218,-0.212 -0.5,-0.318 -0.846,-0.318c-0.343,0 -0.628,0.108 -0.856,0.323c-0.229,0.215 -0.375,0.538 -0.441,0.969l-0.88,-0.157c0.107,-0.59 0.352,-1.048 0.734,-1.372c0.381,-0.325 0.856,-0.487 1.423,-0.487c0.392,0 0.752,0.084 1.082,0.252c0.329,0.168 0.581,0.397 0.755,0.688c0.175,0.29 0.262,0.598 0.262,0.924c0,0.31 -0.083,0.592 -0.249,0.847c-0.167,0.254 -0.413,0.456 -0.739,0.606c0.424,0.098 0.753,0.301 0.988,0.609c0.235,0.309 0.352,0.694 0.352,1.158c0,0.626 -0.228,1.157 -0.685,1.592c-0.456,0.435 -1.033,0.653 -1.732,0.653c-0.629,0 -1.152,-0.187 -1.568,-0.562c-0.415,-0.376 -0.653,-0.862 -0.711,-1.458Z" style="fill-rule:nonzero;"/></g><g transform="matrix(1,0,0.00479,1,-2.72206,0)"><path d="M179.216,568.28l0,-10.05l6.78,0l0,1.186l-5.45,0l0,3.112l4.716,0l0,1.186l-4.716,0l0,4.566l-1.33,0Z" style="fill-rule:nonzero;"/><path d="M187.452,568.28l0,-7.281l1.111,0l0,1.104c0.283,-0.516 0.545,-0.857 0.785,-1.021c0.24,-0.165 0.504,-0.247 0.791,-0.247c0.416,0 0.839,0.132 1.269,0.398l-0.425,1.144c-0.302,-0.178 -0.604,-0.267 -0.905,-0.267c-0.27,0 -0.512,0.081 -0.727,0.243c-0.215,0.163 -0.368,0.388 -0.459,0.676c-0.137,0.438 -0.206,0.918 -0.206,1.439l0,3.812l-1.234,0Z" style="fill-rule:nonzero;"/><path d="M197.025,565.935l1.275,0.158c-0.201,0.745 -0.573,1.323 -1.117,1.735c-0.544,0.411 -1.239,0.617 -2.084,0.617c-1.065,0 -1.909,-0.328 -2.533,-0.984c-0.624,-0.656 -0.936,-1.576 -0.936,-2.76c0,-1.224 0.315,-2.175 0.946,-2.851c0.631,-0.677 1.449,-1.015 2.454,-1.015c0.974,0 1.769,0.331 2.386,0.994c0.617,0.663 0.925,1.595 0.925,2.797c0,0.073 -0.002,0.183 -0.006,0.329l-5.43,0c0.046,0.8 0.272,1.412 0.679,1.837c0.406,0.425 0.914,0.638 1.522,0.638c0.452,0 0.838,-0.119 1.158,-0.357c0.32,-0.237 0.574,-0.617 0.761,-1.138Zm-4.051,-1.995l4.065,0c-0.055,-0.612 -0.21,-1.071 -0.466,-1.377c-0.393,-0.476 -0.903,-0.713 -1.529,-0.713c-0.567,0 -1.043,0.189 -1.429,0.569c-0.387,0.379 -0.6,0.886 -0.641,1.521Z" style="fill-rule:nonzero;"/></g><g transform="matrix(1,0,0.00479,1,-2.72206,0)"><path d="M199.756,559.649l0,-1.419l1.234,0l0,1.419l-1.234,0Zm0,8.631l0,-7.281l1.234,0l0,7.281l-1.234,0Z" style="fill-rule:nonzero;"/></g><g transform="matrix(1,0,0.00479,1,-2.72206,0)"><path d="M202.869,568.28l0,-7.281l1.104,0l0,1.022c0.228,-0.357 0.532,-0.643 0.911,-0.86c0.38,-0.217 0.812,-0.326 1.296,-0.326c0.539,0 0.982,0.112 1.327,0.336c0.345,0.224 0.588,0.537 0.73,0.939c0.576,-0.85 1.325,-1.275 2.248,-1.275c0.722,0 1.278,0.2 1.666,0.6c0.389,0.4 0.583,1.016 0.583,1.847l0,4.998l-1.227,0l0,-4.586c0,-0.494 -0.04,-0.849 -0.12,-1.066c-0.08,-0.217 -0.225,-0.392 -0.436,-0.525c-0.21,-0.132 -0.457,-0.199 -0.74,-0.199c-0.512,0 -0.937,0.171 -1.275,0.511c-0.338,0.341 -0.507,0.886 -0.507,1.635l0,4.23l-1.234,0l0,-4.73c0,-0.549 -0.101,-0.96 -0.302,-1.234c-0.201,-0.274 -0.53,-0.412 -0.987,-0.412c-0.348,0 -0.669,0.092 -0.963,0.275c-0.295,0.182 -0.509,0.45 -0.641,0.802c-0.133,0.352 -0.199,0.859 -0.199,1.522l0,3.777l-1.234,0Z" style="fill-rule:nonzero;"/></g><g transform="matrix(1,0,0.00479,1,-2.72206,0)"><path d="M219.165,567.382c-0.457,0.388 -0.897,0.663 -1.32,0.823c-0.422,0.16 -0.876,0.24 -1.36,0.24c-0.8,0 -1.415,-0.196 -1.844,-0.587c-0.43,-0.39 -0.645,-0.89 -0.645,-1.498c0,-0.356 0.081,-0.682 0.243,-0.976c0.163,-0.295 0.375,-0.532 0.638,-0.71c0.263,-0.178 0.559,-0.313 0.888,-0.404c0.242,-0.064 0.608,-0.126 1.097,-0.186c0.996,-0.118 1.73,-0.26 2.2,-0.425c0.005,-0.169 0.007,-0.276 0.007,-0.322c0,-0.503 -0.116,-0.857 -0.349,-1.062c-0.316,-0.279 -0.784,-0.419 -1.406,-0.419c-0.58,0 -1.009,0.102 -1.285,0.305c-0.277,0.204 -0.481,0.564 -0.614,1.08l-1.206,-0.164c0.109,-0.517 0.29,-0.934 0.541,-1.251c0.252,-0.318 0.615,-0.563 1.09,-0.734c0.476,-0.171 1.026,-0.257 1.652,-0.257c0.622,0 1.127,0.073 1.515,0.219c0.389,0.147 0.675,0.331 0.857,0.552c0.183,0.222 0.311,0.502 0.384,0.84c0.041,0.21 0.062,0.59 0.062,1.138l0,1.645c0,1.147 0.026,1.873 0.079,2.177c0.052,0.304 0.156,0.595 0.312,0.874l-1.289,0c-0.128,-0.256 -0.21,-0.555 -0.247,-0.898Zm-0.103,-2.756c-0.448,0.183 -1.119,0.338 -2.015,0.466c-0.508,0.073 -0.866,0.156 -1.077,0.247c-0.21,0.091 -0.372,0.225 -0.486,0.401c-0.115,0.176 -0.172,0.371 -0.172,0.586c0,0.329 0.125,0.603 0.374,0.823c0.249,0.219 0.614,0.329 1.093,0.329c0.476,0 0.898,-0.104 1.269,-0.312c0.37,-0.208 0.642,-0.492 0.815,-0.854c0.133,-0.278 0.199,-0.69 0.199,-1.234l0,-0.452Z" style="fill-rule:nonzero;"/><path d="M222.246,568.28l0,-6.849c0,-0.836 0.102,-1.479 0.305,-1.929c0.204,-0.451 0.543,-0.804 1.018,-1.06c0.475,-0.256 1.01,-0.384 1.604,-0.384c0.791,0 1.413,0.198 1.865,0.593c0.452,0.396 0.679,0.854 0.679,1.375c0,0.233 -0.041,0.473 -0.124,0.72c-0.082,0.247 -0.228,0.554 -0.438,0.922c-0.211,0.368 -0.343,0.624 -0.398,0.768c-0.055,0.144 -0.082,0.271 -0.082,0.38c0,0.146 0.05,0.29 0.151,0.432c0.095,0.146 0.372,0.368 0.829,0.665c0.622,0.407 1.035,0.734 1.241,0.98c0.292,0.352 0.439,0.768 0.439,1.248c0,0.635 -0.235,1.179 -0.703,1.632c-0.469,0.452 -1.068,0.678 -1.8,0.678c-0.575,0 -1.081,-0.154 -1.515,-0.462c-0.434,-0.309 -0.758,-0.705 -0.973,-1.19l1.062,-0.493c0.229,0.425 0.457,0.719 0.686,0.884c0.228,0.165 0.468,0.247 0.72,0.247c0.347,0 0.644,-0.119 0.891,-0.357c0.247,-0.237 0.37,-0.516 0.37,-0.836c0,-0.256 -0.073,-0.475 -0.219,-0.658c-0.096,-0.119 -0.352,-0.32 -0.768,-0.603c-0.759,-0.521 -1.227,-0.912 -1.405,-1.173c-0.183,-0.26 -0.275,-0.528 -0.275,-0.802c0,-0.178 0.031,-0.359 0.093,-0.541c0.062,-0.183 0.21,-0.476 0.446,-0.878c0.235,-0.402 0.389,-0.704 0.462,-0.905c0.073,-0.201 0.11,-0.379 0.11,-0.535c0,-0.283 -0.125,-0.533 -0.374,-0.75c-0.249,-0.217 -0.581,-0.326 -0.997,-0.326c-0.489,0 -0.889,0.151 -1.2,0.453c-0.311,0.301 -0.466,0.955 -0.466,1.96l0,6.794l-1.234,0Z" style="fill-rule:nonzero;"/><path d="M233.293,567.176l0.178,1.09c-0.347,0.073 -0.658,0.11 -0.932,0.11c-0.448,0 -0.795,-0.071 -1.042,-0.213c-0.247,-0.141 -0.421,-0.327 -0.521,-0.558c-0.101,-0.231 -0.151,-0.717 -0.151,-1.457l0,-4.189l-0.905,0l0,-0.96l0.905,0l0,-1.802l1.227,-0.741l0,2.543l1.241,0l0,0.96l-1.241,0l0,4.258c0,0.351 0.022,0.578 0.065,0.678c0.044,0.101 0.115,0.181 0.213,0.24c0.098,0.06 0.239,0.089 0.421,0.089c0.138,0 0.318,-0.016 0.542,-0.048Z" style="fill-rule:nonzero;"/><path d="M233.94,564.64c0,-1.348 0.375,-2.347 1.125,-2.996c0.626,-0.539 1.389,-0.809 2.289,-0.809c1.001,0 1.819,0.328 2.455,0.984c0.635,0.656 0.952,1.562 0.952,2.718c0,0.937 -0.14,1.674 -0.421,2.211c-0.281,0.537 -0.69,0.954 -1.227,1.251c-0.537,0.297 -1.123,0.446 -1.759,0.446c-1.019,0 -1.843,-0.327 -2.471,-0.981c-0.628,-0.653 -0.943,-1.595 -0.943,-2.824Zm1.269,0c0,0.932 0.203,1.63 0.61,2.094c0.406,0.464 0.918,0.696 1.535,0.696c0.613,0 1.122,-0.233 1.529,-0.699c0.407,-0.467 0.61,-1.177 0.61,-2.132c0,-0.901 -0.204,-1.583 -0.613,-2.047c-0.409,-0.464 -0.918,-0.696 -1.526,-0.696c-0.617,0 -1.129,0.231 -1.535,0.693c-0.407,0.461 -0.61,1.158 -0.61,2.091Z" style="fill-rule:nonzero;"/></g><g transform="matrix(1,0,0.00479,1,-2.72206,0)"><rect x="242.081" y="558.23" width="1.234" height="10.05" style="fill-rule:nonzero;"/></g><g transform="matrix(1,0,0.00479,1,-2.72206,0)"><path d="M250.211,565.935l1.275,0.158c-0.201,0.745 -0.573,1.323 -1.117,1.735c-0.544,0.411 -1.239,0.617 -2.084,0.617c-1.065,0 -1.909,-0.328 -2.533,-0.984c-0.624,-0.656 -0.936,-1.576 -0.936,-2.76c0,-1.224 0.315,-2.175 0.946,-2.851c0.631,-0.677 1.449,-1.015 2.454,-1.015c0.974,0 1.769,0.331 2.386,0.994c0.617,0.663 0.925,1.595 0.925,2.797c0,0.073 -0.002,0.183 -0.006,0.329l-5.43,0c0.046,0.8 0.272,1.412 0.679,1.837c0.406,0.425 0.914,0.638 1.522,0.638c0.452,0 0.838,-0.119 1.158,-0.357c0.32,-0.237 0.574,-0.617 0.761,-1.138Zm-4.051,-1.995l4.065,0c-0.055,-0.612 -0.21,-1.071 -0.466,-1.377c-0.393,-0.476 -0.903,-0.713 -1.529,-0.713c-0.567,0 -1.043,0.189 -1.429,0.569c-0.387,0.379 -0.6,0.886 -0.641,1.521Z" style="fill-rule:nonzero;"/><path d="M252.922,568.28l0,-7.281l1.11,0l0,1.104c0.284,-0.516 0.545,-0.857 0.785,-1.021c0.24,-0.165 0.504,-0.247 0.792,-0.247c0.416,0 0.839,0.132 1.269,0.398l-0.426,1.144c-0.301,-0.178 -0.603,-0.267 -0.904,-0.267c-0.27,0 -0.512,0.081 -0.727,0.243c-0.215,0.163 -0.368,0.388 -0.459,0.676c-0.138,0.438 -0.206,0.918 -0.206,1.439l0,3.812l-1.234,0Z" style="fill-rule:nonzero;"/><path d="M262.262,567.382c-0.457,0.388 -0.897,0.663 -1.32,0.823c-0.423,0.16 -0.876,0.24 -1.361,0.24c-0.799,0 -1.414,-0.196 -1.844,-0.587c-0.429,-0.39 -0.644,-0.89 -0.644,-1.498c0,-0.356 0.081,-0.682 0.243,-0.976c0.162,-0.295 0.375,-0.532 0.638,-0.71c0.263,-0.178 0.559,-0.313 0.888,-0.404c0.242,-0.064 0.607,-0.126 1.096,-0.186c0.997,-0.118 1.73,-0.26 2.201,-0.425c0.005,-0.169 0.007,-0.276 0.007,-0.322c0,-0.503 -0.117,-0.857 -0.35,-1.062c-0.315,-0.279 -0.784,-0.419 -1.405,-0.419c-0.581,0 -1.009,0.102 -1.286,0.305c-0.276,0.204 -0.481,0.564 -0.613,1.08l-1.207,-0.164c0.11,-0.517 0.291,-0.934 0.542,-1.251c0.251,-0.318 0.615,-0.563 1.09,-0.734c0.475,-0.171 1.026,-0.257 1.652,-0.257c0.622,0 1.127,0.073 1.515,0.219c0.389,0.147 0.674,0.331 0.857,0.552c0.183,0.222 0.311,0.502 0.384,0.84c0.041,0.21 0.062,0.59 0.062,1.138l0,1.645c0,1.147 0.026,1.873 0.079,2.177c0.052,0.304 0.156,0.595 0.312,0.874l-1.289,0c-0.128,-0.256 -0.211,-0.555 -0.247,-0.898Zm-0.103,-2.756c-0.448,0.183 -1.12,0.338 -2.015,0.466c-0.508,0.073 -0.867,0.156 -1.077,0.247c-0.21,0.091 -0.372,0.225 -0.487,0.401c-0.114,0.176 -0.171,0.371 -0.171,0.586c0,0.329 0.125,0.603 0.374,0.823c0.249,0.219 0.613,0.329 1.093,0.329c0.475,0 0.898,-0.104 1.268,-0.312c0.371,-0.208 0.643,-0.492 0.816,-0.854c0.133,-0.278 0.199,-0.69 0.199,-1.234l0,-0.452Z" style="fill-rule:nonzero;"/><path d="M265.219,568.28l0,-7.281l1.111,0l0,1.036c0.535,-0.8 1.307,-1.2 2.317,-1.2c0.439,0 0.842,0.079 1.21,0.236c0.368,0.158 0.643,0.365 0.826,0.621c0.183,0.256 0.311,0.56 0.384,0.912c0.046,0.228 0.069,0.628 0.069,1.199l0,4.477l-1.234,0l0,-4.429c0,-0.502 -0.048,-0.878 -0.144,-1.127c-0.096,-0.249 -0.266,-0.448 -0.511,-0.597c-0.245,-0.148 -0.531,-0.223 -0.86,-0.223c-0.526,0 -0.98,0.167 -1.361,0.501c-0.382,0.333 -0.573,0.966 -0.573,1.899l0,3.976l-1.234,0Z" style="fill-rule:nonzero;"/><path d="M272.277,568.28l0,-1.001l4.634,-5.32c-0.526,0.028 -0.99,0.041 -1.392,0.041l-2.968,0l0,-1.001l5.95,0l0,0.816l-3.942,4.621l-0.761,0.843c0.553,-0.041 1.072,-0.062 1.557,-0.062l3.366,0l0,1.063l-6.444,0Z" style="fill-rule:nonzero;"/><path d="M284.832,565.935l1.275,0.158c-0.201,0.745 -0.574,1.323 -1.118,1.735c-0.543,0.411 -1.238,0.617 -2.084,0.617c-1.065,0 -1.909,-0.328 -2.533,-0.984c-0.624,-0.656 -0.936,-1.576 -0.936,-2.76c0,-1.224 0.316,-2.175 0.947,-2.851c0.63,-0.677 1.448,-1.015 2.454,-1.015c0.973,0 1.768,0.331 2.385,0.994c0.617,0.663 0.926,1.595 0.926,2.797c0,0.073 -0.002,0.183 -0.007,0.329l-5.429,0c0.045,0.8 0.272,1.412 0.678,1.837c0.407,0.425 0.914,0.638 1.522,0.638c0.453,0 0.839,-0.119 1.159,-0.357c0.32,-0.237 0.573,-0.617 0.761,-1.138Zm-4.052,-1.995l4.065,0c-0.054,-0.612 -0.21,-1.071 -0.466,-1.377c-0.393,-0.476 -0.902,-0.713 -1.529,-0.713c-0.566,0 -1.043,0.189 -1.429,0.569c-0.386,0.379 -0.6,0.886 -0.641,1.521Z" style="fill-rule:nonzero;"/></g><g transform="matrix(1,0,0.00479,1,-2.72206,0)"><path d="M287.556,568.28l0,-7.281l1.111,0l0,1.036c0.534,-0.8 1.307,-1.2 2.317,-1.2c0.439,0 0.842,0.079 1.21,0.236c0.368,0.158 0.643,0.365 0.826,0.621c0.183,0.256 0.311,0.56 0.384,0.912c0.046,0.228 0.068,0.628 0.068,1.199l0,4.477l-1.234,0l0,-4.429c0,-0.502 -0.048,-0.878 -0.144,-1.127c-0.095,-0.249 -0.266,-0.448 -0.51,-0.597c-0.245,-0.148 -0.532,-0.223 -0.861,-0.223c-0.525,0 -0.979,0.167 -1.36,0.501c-0.382,0.333 -0.573,0.966 -0.573,1.899l0,3.976l-1.234,0Z" style="fill-rule:nonzero;"/></g><g transform="matrix(1,0,0.00479,1,-2.72206,0)"><path d="M303.931,567.382c-0.457,0.388 -0.897,0.663 -1.319,0.823c-0.423,0.16 -0.877,0.24 -1.361,0.24c-0.8,0 -1.415,-0.196 -1.844,-0.587c-0.43,-0.39 -0.645,-0.89 -0.645,-1.498c0,-0.356 0.081,-0.682 0.244,-0.976c0.162,-0.295 0.374,-0.532 0.637,-0.71c0.263,-0.178 0.559,-0.313 0.888,-0.404c0.242,-0.064 0.608,-0.126 1.097,-0.186c0.996,-0.118 1.73,-0.26 2.2,-0.425c0.005,-0.169 0.007,-0.276 0.007,-0.322c0,-0.503 -0.116,-0.857 -0.349,-1.062c-0.316,-0.279 -0.784,-0.419 -1.406,-0.419c-0.58,0 -1.009,0.102 -1.285,0.305c-0.277,0.204 -0.481,0.564 -0.614,1.08l-1.206,-0.164c0.109,-0.517 0.29,-0.934 0.541,-1.251c0.252,-0.318 0.615,-0.563 1.09,-0.734c0.476,-0.171 1.026,-0.257 1.652,-0.257c0.622,0 1.127,0.073 1.516,0.219c0.388,0.147 0.674,0.331 0.856,0.552c0.183,0.222 0.311,0.502 0.384,0.84c0.042,0.21 0.062,0.59 0.062,1.138l0,1.645c0,1.147 0.026,1.873 0.079,2.177c0.052,0.304 0.156,0.595 0.312,0.874l-1.289,0c-0.128,-0.256 -0.21,-0.555 -0.247,-0.898Zm-0.103,-2.756c-0.448,0.183 -1.119,0.338 -2.015,0.466c-0.507,0.073 -0.866,0.156 -1.076,0.247c-0.211,0.091 -0.373,0.225 -0.487,0.401c-0.114,0.176 -0.172,0.371 -0.172,0.586c0,0.329 0.125,0.603 0.374,0.823c0.249,0.219 0.614,0.329 1.094,0.329c0.475,0 0.898,-0.104 1.268,-0.312c0.37,-0.208 0.642,-0.492 0.816,-0.854c0.132,-0.278 0.198,-0.69 0.198,-1.234l0,-0.452Z" style="fill-rule:nonzero;"/></g><g transform="matrix(1,0,0.00479,1,-2.72206,0)"><path d="M308.027,568.28l-1.145,0l0,-10.05l1.234,0l0,3.585c0.521,-0.653 1.186,-0.98 1.995,-0.98c0.448,0 0.872,0.09 1.272,0.271c0.399,0.18 0.728,0.434 0.987,0.761c0.258,0.326 0.46,0.721 0.606,1.182c0.147,0.462 0.22,0.955 0.22,1.481c0,1.248 -0.309,2.212 -0.926,2.893c-0.617,0.681 -1.357,1.022 -2.221,1.022c-0.859,0 -1.533,-0.359 -2.022,-1.077l0,0.912Zm-0.014,-3.695c0,0.873 0.119,1.504 0.357,1.892c0.388,0.635 0.914,0.953 1.576,0.953c0.54,0 1.006,-0.234 1.399,-0.703c0.393,-0.468 0.589,-1.166 0.589,-2.094c0,-0.951 -0.188,-1.652 -0.565,-2.105c-0.377,-0.452 -0.833,-0.678 -1.368,-0.678c-0.539,0 -1.005,0.234 -1.398,0.702c-0.393,0.469 -0.59,1.146 -0.59,2.033Z" style="fill-rule:nonzero;"/></g><g transform="matrix(1,0,0.00479,1,-2.72206,0)"><path d="M318.068,565.627l1.234,-0.165c0.142,0.7 0.383,1.204 0.723,1.512c0.341,0.309 0.756,0.463 1.245,0.463c0.58,0 1.07,-0.201 1.47,-0.604c0.4,-0.402 0.6,-0.9 0.6,-1.494c0,-0.567 -0.185,-1.034 -0.555,-1.402c-0.371,-0.368 -0.841,-0.552 -1.413,-0.552c-0.233,0 -0.523,0.046 -0.87,0.137l0.137,-1.083c0.082,0.009 0.148,0.014 0.199,0.014c0.525,0 0.998,-0.137 1.419,-0.411c0.42,-0.275 0.63,-0.697 0.63,-1.269c0,-0.452 -0.153,-0.827 -0.459,-1.124c-0.306,-0.297 -0.701,-0.446 -1.186,-0.446c-0.48,0 -0.88,0.151 -1.2,0.453c-0.319,0.301 -0.525,0.754 -0.617,1.357l-1.234,-0.219c0.151,-0.827 0.494,-1.468 1.029,-1.923c0.534,-0.455 1.199,-0.682 1.995,-0.682c0.548,0 1.053,0.117 1.515,0.353c0.461,0.235 0.814,0.556 1.059,0.963c0.244,0.407 0.367,0.839 0.367,1.296c0,0.434 -0.117,0.829 -0.35,1.186c-0.233,0.356 -0.578,0.64 -1.035,0.85c0.594,0.137 1.056,0.421 1.385,0.853c0.329,0.432 0.493,0.973 0.493,1.622c0,0.877 -0.32,1.621 -0.959,2.231c-0.64,0.61 -1.449,0.915 -2.427,0.915c-0.882,0 -1.615,-0.263 -2.197,-0.788c-0.583,-0.526 -0.916,-1.207 -0.998,-2.043Z" style="fill-rule:nonzero;"/></g><g transform="matrix(1,0,0.00479,1,-2.72206,0)"><path d="M325.77,563.323c0,-1.188 0.122,-2.144 0.366,-2.869c0.245,-0.724 0.608,-1.283 1.09,-1.676c0.483,-0.393 1.089,-0.589 1.82,-0.589c0.54,0 1.013,0.108 1.42,0.325c0.406,0.217 0.742,0.531 1.007,0.94c0.265,0.409 0.473,0.907 0.624,1.494c0.151,0.587 0.226,1.379 0.226,2.375c0,1.18 -0.121,2.131 -0.363,2.856c-0.242,0.724 -0.604,1.284 -1.087,1.679c-0.482,0.396 -1.091,0.593 -1.827,0.593c-0.968,0 -1.729,-0.347 -2.282,-1.042c-0.663,-0.836 -0.994,-2.198 -0.994,-4.086Zm1.268,0c0,1.65 0.193,2.748 0.579,3.295c0.386,0.546 0.863,0.819 1.429,0.819c0.567,0 1.044,-0.274 1.43,-0.823c0.386,-0.548 0.579,-1.645 0.579,-3.291c0,-1.654 -0.193,-2.753 -0.579,-3.297c-0.386,-0.544 -0.867,-0.816 -1.443,-0.816c-0.567,0 -1.019,0.24 -1.358,0.72c-0.425,0.612 -0.637,1.744 -0.637,3.393Z" style="fill-rule:nonzero;"/></g><g transform="matrix(1,0,0.00479,1,-2.72206,0)"><path d="M337.682,568.28l0,-7.281l1.104,0l0,1.022c0.228,-0.357 0.532,-0.643 0.912,-0.86c0.379,-0.217 0.811,-0.326 1.295,-0.326c0.54,0 0.982,0.112 1.327,0.336c0.345,0.224 0.588,0.537 0.73,0.939c0.576,-0.85 1.325,-1.275 2.248,-1.275c0.723,0 1.278,0.2 1.666,0.6c0.389,0.4 0.583,1.016 0.583,1.847l0,4.998l-1.227,0l0,-4.586c0,-0.494 -0.04,-0.849 -0.12,-1.066c-0.08,-0.217 -0.225,-0.392 -0.435,-0.525c-0.211,-0.132 -0.457,-0.199 -0.741,-0.199c-0.512,0 -0.937,0.171 -1.275,0.511c-0.338,0.341 -0.507,0.886 -0.507,1.635l0,4.23l-1.234,0l0,-4.73c0,-0.549 -0.101,-0.96 -0.302,-1.234c-0.201,-0.274 -0.53,-0.412 -0.987,-0.412c-0.347,0 -0.668,0.092 -0.963,0.275c-0.295,0.182 -0.509,0.45 -0.641,0.802c-0.133,0.352 -0.199,0.859 -0.199,1.522l0,3.777l-1.234,0Z" style="fill-rule:nonzero;"/></g><g transform="matrix(1,0,0.00479,1,-2.72206,0)"><path d="M349.227,568.28l0,-7.281l1.104,0l0,1.022c0.229,-0.357 0.533,-0.643 0.912,-0.86c0.379,-0.217 0.811,-0.326 1.296,-0.326c0.539,0 0.981,0.112 1.326,0.336c0.345,0.224 0.589,0.537 0.73,0.939c0.576,-0.85 1.326,-1.275 2.249,-1.275c0.722,0 1.277,0.2 1.666,0.6c0.388,0.4 0.583,1.016 0.583,1.847l0,4.998l-1.228,0l0,-4.586c0,-0.494 -0.04,-0.849 -0.12,-1.066c-0.08,-0.217 -0.225,-0.392 -0.435,-0.525c-0.21,-0.132 -0.457,-0.199 -0.74,-0.199c-0.512,0 -0.937,0.171 -1.275,0.511c-0.339,0.341 -0.508,0.886 -0.508,1.635l0,4.23l-1.234,0l0,-4.73c0,-0.549 -0.1,-0.96 -0.301,-1.234c-0.201,-0.274 -0.531,-0.412 -0.988,-0.412c-0.347,0 -0.668,0.092 -0.963,0.275c-0.295,0.182 -0.508,0.45 -0.641,0.802c-0.132,0.352 -0.199,0.859 -0.199,1.522l0,3.777l-1.234,0Z" style="fill-rule:nonzero;"/></g><g transform="matrix(1,0,0.00479,1,-2.72206,0)"><path d="M365.116,568.28l0,-0.941l7.527,0l0,0.941l-7.527,0Zm3.293,-1.882l0,-2.352l-3.293,0l0,-0.941l3.293,0l0,-2.352l0.941,0l0,2.352l3.293,0l0,0.941l-3.293,0l0,2.352l-0.941,0Z" style="fill-rule:nonzero;"/></g><g transform="matrix(1,0,0.00479,1,-2.72206,0)"><path d="M374.637,563.323c0,-1.188 0.122,-2.144 0.367,-2.869c0.244,-0.724 0.607,-1.283 1.09,-1.676c0.482,-0.393 1.089,-0.589 1.82,-0.589c0.539,0 1.012,0.108 1.419,0.325c0.407,0.217 0.743,0.531 1.008,0.94c0.265,0.409 0.473,0.907 0.623,1.494c0.151,0.587 0.227,1.379 0.227,2.375c0,1.18 -0.121,2.131 -0.364,2.856c-0.242,0.724 -0.604,1.284 -1.086,1.679c-0.482,0.396 -1.091,0.593 -1.827,0.593c-0.969,0 -1.73,-0.347 -2.283,-1.042c-0.663,-0.836 -0.994,-2.198 -0.994,-4.086Zm1.268,0c0,1.65 0.193,2.748 0.579,3.295c0.387,0.546 0.863,0.819 1.43,0.819c0.566,0 1.043,-0.274 1.429,-0.823c0.386,-0.548 0.579,-1.645 0.579,-3.291c0,-1.654 -0.193,-2.753 -0.579,-3.297c-0.386,-0.544 -0.867,-0.816 -1.443,-0.816c-0.567,0 -1.019,0.24 -1.357,0.72c-0.425,0.612 -0.638,1.744 -0.638,3.393Z" style="fill-rule:nonzero;"/></g><g transform="matrix(1,0,0.00479,1,-2.72206,0)"><path d="M383.01,568.28l0,-1.405l1.406,0l0,1.405c0,0.516 -0.092,0.933 -0.275,1.251c-0.182,0.318 -0.473,0.563 -0.87,0.737l-0.343,-0.528c0.26,-0.114 0.452,-0.282 0.576,-0.504c0.123,-0.221 0.192,-0.54 0.205,-0.956l-0.699,0Z" style="fill-rule:nonzero;"/><path d="M392.731,567.094l0,1.186l-6.643,0c-0.009,-0.297 0.039,-0.583 0.144,-0.857c0.169,-0.452 0.44,-0.898 0.813,-1.337c0.372,-0.439 0.91,-0.946 1.614,-1.522c1.092,-0.895 1.831,-1.605 2.214,-2.128c0.384,-0.524 0.576,-1.018 0.576,-1.484c0,-0.49 -0.175,-0.902 -0.524,-1.238c-0.35,-0.336 -0.806,-0.504 -1.368,-0.504c-0.594,0 -1.069,0.178 -1.426,0.535c-0.356,0.356 -0.537,0.85 -0.541,1.481l-1.269,-0.131c0.087,-0.946 0.414,-1.667 0.981,-2.162c0.566,-0.496 1.327,-0.744 2.283,-0.744c0.964,0 1.727,0.267 2.289,0.802c0.562,0.535 0.844,1.197 0.844,1.988c0,0.402 -0.083,0.797 -0.247,1.186c-0.165,0.388 -0.438,0.797 -0.819,1.227c-0.382,0.43 -1.016,1.019 -1.903,1.769c-0.74,0.621 -1.216,1.043 -1.426,1.265c-0.21,0.221 -0.384,0.444 -0.521,0.668l4.929,0Z" style="fill-rule:nonzero;"/></g></g><g transform="matrix(0.64983,0.76008,-0.76632,0.64253,-65.25,-261.2)"><g transform="matrix(1,0,0.00480176,1,-0.237013,0)"><path d="M313.686,47.008l1.186,-0.11c0.101,0.557 0.293,0.962 0.576,1.213c0.283,0.252 0.647,0.377 1.09,0.377c0.379,0 0.712,-0.087 0.998,-0.26c0.285,-0.174 0.519,-0.406 0.702,-0.696c0.183,-0.29 0.336,-0.682 0.46,-1.176c0.123,-0.493 0.185,-0.996 0.185,-1.508c0,-0.055 -0.003,-0.137 -0.007,-0.247c-0.247,0.393 -0.584,0.712 -1.011,0.957c-0.428,0.244 -0.89,0.366 -1.389,0.366c-0.831,0 -1.535,-0.301 -2.111,-0.905c-0.576,-0.603 -0.864,-1.398 -0.864,-2.385c0,-1.019 0.301,-1.84 0.902,-2.461c0.601,-0.622 1.354,-0.933 2.259,-0.933c0.653,0 1.251,0.176 1.792,0.528c0.542,0.352 0.953,0.854 1.234,1.505c0.281,0.651 0.422,1.594 0.422,2.828c0,1.284 -0.14,2.307 -0.418,3.068c-0.279,0.761 -0.694,1.34 -1.245,1.737c-0.55,0.398 -1.196,0.597 -1.936,0.597c-0.786,0 -1.429,-0.218 -1.927,-0.655c-0.498,-0.436 -0.797,-1.05 -0.898,-1.84Zm5.053,-4.436c0,-0.708 -0.189,-1.271 -0.566,-1.686c-0.377,-0.416 -0.83,-0.624 -1.361,-0.624c-0.548,0 -1.026,0.224 -1.432,0.672c-0.407,0.447 -0.611,1.028 -0.611,1.741c0,0.64 0.194,1.16 0.58,1.559c0.386,0.4 0.862,0.6 1.429,0.6c0.571,0 1.041,-0.2 1.409,-0.6c0.368,-0.399 0.552,-0.954 0.552,-1.662Z" style="fill-rule:nonzero;"/></g><g transform="matrix(1,0,0.00480176,1,-0.236782,0)"><path d="M321.395,46.959l1.186,-0.11c0.1,0.558 0.292,0.962 0.576,1.213c0.283,0.252 0.646,0.377 1.09,0.377c0.379,0 0.711,-0.086 0.997,-0.26c0.286,-0.174 0.52,-0.406 0.703,-0.696c0.182,-0.29 0.336,-0.682 0.459,-1.176c0.123,-0.493 0.185,-0.996 0.185,-1.508c0,-0.055 -0.002,-0.137 -0.007,-0.247c-0.247,0.393 -0.584,0.712 -1.011,0.957c-0.427,0.244 -0.89,0.367 -1.388,0.367c-0.832,0 -1.536,-0.302 -2.112,-0.905c-0.576,-0.604 -0.863,-1.399 -0.863,-2.386c0,-1.019 0.3,-1.84 0.901,-2.461c0.601,-0.622 1.354,-0.933 2.259,-0.933c0.653,0 1.251,0.176 1.793,0.528c0.541,0.352 0.953,0.854 1.234,1.505c0.281,0.651 0.421,1.594 0.421,2.828c0,1.284 -0.139,2.307 -0.418,3.068c-0.279,0.761 -0.694,1.34 -1.244,1.738c-0.551,0.397 -1.197,0.596 -1.937,0.596c-0.786,0 -1.428,-0.218 -1.926,-0.655c-0.498,-0.436 -0.798,-1.05 -0.898,-1.84Zm5.052,-4.436c0,-0.708 -0.188,-1.27 -0.565,-1.686c-0.377,-0.416 -0.831,-0.624 -1.361,-0.624c-0.549,0 -1.026,0.224 -1.433,0.672c-0.407,0.448 -0.61,1.028 -0.61,1.741c0,0.64 0.193,1.16 0.579,1.56c0.386,0.4 0.863,0.6 1.429,0.6c0.572,0 1.041,-0.2 1.409,-0.6c0.368,-0.4 0.552,-0.954 0.552,-1.663Z" style="fill-rule:nonzero;"/></g><g transform="matrix(1,0,0.00480176,1,-0.236957,0)"><path d="M329.213,40.996c0,-0.526 0.186,-0.973 0.558,-1.344c0.373,-0.37 0.82,-0.555 1.341,-0.555c0.53,0 0.98,0.185 1.35,0.555c0.37,0.371 0.556,0.818 0.556,1.344c0,0.526 -0.187,0.975 -0.559,1.347c-0.373,0.373 -0.822,0.559 -1.347,0.559c-0.521,0 -0.968,-0.185 -1.341,-0.555c-0.372,-0.371 -0.558,-0.821 -0.558,-1.351Zm0.747,0c0,0.32 0.113,0.593 0.339,0.819c0.227,0.226 0.5,0.34 0.82,0.34c0.315,0 0.586,-0.114 0.812,-0.34c0.226,-0.226 0.339,-0.499 0.339,-0.819c0,-0.32 -0.113,-0.593 -0.339,-0.819c-0.226,-0.226 -0.497,-0.34 -0.812,-0.34c-0.32,0 -0.593,0.114 -0.82,0.34c-0.226,0.226 -0.339,0.499 -0.339,0.819Z" style="fill-rule:nonzero;"/></g></g><g transform="matrix(-0.00239999,-0.999997,1.00002,0.00719999,-65.25,-261.2)"><g transform="matrix(1,0,0.0048,1,-1.84114,0)"><path d="M-415.093,383.703l-1.926,0l0,-7.26c-0.704,0.658 -1.534,1.145 -2.489,1.46l0,-1.748c0.503,-0.165 1.049,-0.477 1.638,-0.936c0.59,-0.459 0.995,-0.995 1.214,-1.607l1.563,0l0,10.091Z" style="fill:#ec008c;fill-rule:nonzero;"/></g><g transform="matrix(1,0,0.0048,1,-1.84124,0)"><path d="M-409.107,373.63c0.973,0 1.734,0.347 2.282,1.042c0.654,0.823 0.981,2.187 0.981,4.093c0,1.901 -0.329,3.267 -0.987,4.099c-0.544,0.686 -1.303,1.029 -2.276,1.029c-0.978,0 -1.767,-0.376 -2.366,-1.128c-0.598,-0.752 -0.898,-2.092 -0.898,-4.021c0,-1.892 0.329,-3.254 0.988,-4.086c0.543,-0.685 1.302,-1.028 2.276,-1.028Zm0,1.597c-0.233,0 -0.441,0.075 -0.624,0.223c-0.183,0.149 -0.325,0.415 -0.425,0.799c-0.133,0.498 -0.199,1.337 -0.199,2.516c0,1.179 0.059,1.989 0.178,2.43c0.119,0.441 0.269,0.735 0.449,0.881c0.181,0.146 0.388,0.219 0.621,0.219c0.233,0 0.441,-0.074 0.623,-0.223c0.183,-0.148 0.325,-0.414 0.426,-0.798c0.132,-0.494 0.198,-1.33 0.198,-2.509c0,-1.179 -0.059,-1.99 -0.178,-2.431c-0.119,-0.441 -0.268,-0.735 -0.449,-0.884c-0.18,-0.148 -0.387,-0.223 -0.62,-0.223Z" style="fill:#ec008c;fill-rule:nonzero;"/></g></g><path d="M272.521,196.211l-0.009,1.789l-6.752,0c0.076,-0.676 0.298,-1.317 0.667,-1.923c0.368,-0.606 1.094,-1.409 2.178,-2.41c0.872,-0.809 1.407,-1.357 1.605,-1.645c0.267,-0.398 0.401,-0.791 0.403,-1.179c0.002,-0.43 -0.111,-0.76 -0.341,-0.991c-0.23,-0.231 -0.548,-0.346 -0.955,-0.346c-0.402,0 -0.723,0.121 -0.961,0.363c-0.239,0.243 -0.378,0.645 -0.417,1.207l-1.919,-0.192c0.119,-1.06 0.482,-1.821 1.087,-2.283c0.606,-0.461 1.361,-0.692 2.266,-0.692c0.992,0 1.77,0.267 2.334,0.802c0.564,0.535 0.844,1.2 0.84,1.995c-0.002,0.452 -0.085,0.883 -0.249,1.292c-0.165,0.409 -0.424,0.838 -0.778,1.285c-0.234,0.298 -0.657,0.725 -1.267,1.282c-0.611,0.558 -0.998,0.928 -1.161,1.111c-0.163,0.183 -0.295,0.361 -0.397,0.535l3.826,0Z" style="fill:#ec008c;fill-rule:nonzero;"/><path d="M277.119,187.909c0.974,0 1.733,0.347 2.278,1.042c0.65,0.822 0.97,2.187 0.961,4.093c-0.009,1.901 -0.345,3.267 -1.007,4.099c-0.547,0.686 -1.307,1.028 -2.281,1.028c-0.978,0 -1.764,-0.376 -2.359,-1.127c-0.596,-0.752 -0.888,-2.092 -0.879,-4.021c0.009,-1.892 0.344,-3.254 1.007,-4.086c0.547,-0.685 1.307,-1.028 2.28,-1.028Zm-0.007,1.597c-0.233,0 -0.442,0.074 -0.625,0.223c-0.184,0.148 -0.327,0.415 -0.429,0.799c-0.135,0.498 -0.205,1.336 -0.211,2.516c-0.005,1.179 0.05,1.989 0.167,2.43c0.117,0.441 0.265,0.734 0.445,0.881c0.179,0.146 0.386,0.219 0.619,0.219c0.233,0 0.441,-0.074 0.625,-0.223c0.183,-0.148 0.326,-0.414 0.429,-0.798c0.135,-0.494 0.205,-1.33 0.211,-2.509c0.005,-1.18 -0.05,-1.99 -0.167,-2.431c-0.117,-0.441 -0.265,-0.736 -0.445,-0.884c-0.18,-0.149 -0.386,-0.223 -0.619,-0.223Z" style="fill:#ec008c;fill-rule:nonzero;"/><g transform="matrix(1,0,-0.00958,1,-65.25,-261.2)"><g transform="matrix(1,0,0.00479,1,-2.19957,0)"><path d="M236.503,456.615l1.92,-0.198c0.054,0.434 0.217,0.778 0.486,1.031c0.27,0.254 0.581,0.381 0.933,0.381c0.402,0 0.742,-0.163 1.021,-0.49c0.279,-0.327 0.418,-0.819 0.418,-1.478c0,-0.617 -0.138,-1.079 -0.415,-1.388c-0.276,-0.308 -0.636,-0.463 -1.079,-0.463c-0.553,0 -1.049,0.245 -1.488,0.734l-1.563,-0.226l0.987,-5.231l5.094,0l0,1.803l-3.634,0l-0.301,1.707c0.429,-0.215 0.868,-0.322 1.316,-0.322c0.855,0 1.579,0.311 2.173,0.932c0.594,0.622 0.891,1.428 0.891,2.42c0,0.827 -0.239,1.565 -0.719,2.214c-0.654,0.887 -1.561,1.33 -2.722,1.33c-0.928,0 -1.684,-0.249 -2.269,-0.747c-0.585,-0.498 -0.935,-1.168 -1.049,-2.009Z" style="fill:#ec008c;fill-rule:nonzero;"/></g><g transform="matrix(1,0,0.00479,1,-2.19957,0)"><path d="M247.39,449.109c0.974,0 1.735,0.347 2.283,1.042c0.654,0.822 0.98,2.187 0.98,4.093c0,1.901 -0.329,3.267 -0.987,4.099c-0.544,0.686 -1.302,1.028 -2.276,1.028c-0.978,0 -1.766,-0.376 -2.365,-1.127c-0.599,-0.752 -0.898,-2.092 -0.898,-4.021c0,-1.892 0.329,-3.254 0.987,-4.086c0.544,-0.685 1.303,-1.028 2.276,-1.028Zm0,1.597c-0.233,0 -0.441,0.074 -0.624,0.223c-0.182,0.148 -0.324,0.415 -0.425,0.799c-0.132,0.498 -0.198,1.336 -0.198,2.516c0,1.179 0.059,1.989 0.178,2.43c0.119,0.441 0.268,0.734 0.449,0.881c0.18,0.146 0.387,0.219 0.62,0.219c0.233,0 0.441,-0.074 0.624,-0.223c0.183,-0.148 0.325,-0.414 0.425,-0.798c0.133,-0.494 0.199,-1.33 0.199,-2.509c0,-1.18 -0.059,-1.99 -0.178,-2.431c-0.119,-0.441 -0.269,-0.736 -0.449,-0.884c-0.181,-0.149 -0.388,-0.223 -0.621,-0.223Z" style="fill:#ec008c;fill-rule:nonzero;"/></g><g transform="matrix(1,0,0.00479,1,-2.32143,0)"><path d="M241.605,479.19c-0.512,-0.187 -0.892,-0.455 -1.138,-0.802c-0.247,-0.348 -0.371,-0.763 -0.371,-1.248c0,-0.731 0.263,-1.346 0.789,-1.844c0.525,-0.498 1.225,-0.747 2.097,-0.747c0.878,0 1.584,0.255 2.119,0.764c0.535,0.51 0.802,1.13 0.802,1.861c0,0.467 -0.122,0.872 -0.367,1.217c-0.244,0.345 -0.616,0.612 -1.114,0.799c0.617,0.201 1.087,0.525 1.409,0.973c0.322,0.448 0.483,0.983 0.483,1.605c0,0.859 -0.304,1.581 -0.912,2.166c-0.607,0.585 -1.407,0.877 -2.399,0.877c-0.992,0 -1.792,-0.293 -2.399,-0.881c-0.608,-0.587 -0.912,-1.319 -0.912,-2.197c0,-0.653 0.166,-1.201 0.497,-1.642c0.331,-0.441 0.803,-0.741 1.416,-0.901Zm-0.247,-2.091c0,0.475 0.153,0.864 0.459,1.165c0.306,0.302 0.704,0.453 1.193,0.453c0.475,0 0.865,-0.15 1.169,-0.449c0.304,-0.3 0.456,-0.666 0.456,-1.1c0,-0.453 -0.157,-0.833 -0.47,-1.142c-0.313,-0.308 -0.703,-0.463 -1.169,-0.463c-0.471,0 -0.861,0.151 -1.172,0.453c-0.311,0.301 -0.466,0.663 -0.466,1.083Zm-0.398,4.641c0,0.352 0.084,0.693 0.25,1.022c0.167,0.329 0.415,0.583 0.744,0.764c0.329,0.181 0.683,0.271 1.063,0.271c0.589,0 1.076,-0.19 1.46,-0.569c0.384,-0.38 0.576,-0.862 0.576,-1.447c0,-0.594 -0.198,-1.085 -0.593,-1.474c-0.395,-0.388 -0.89,-0.582 -1.484,-0.582c-0.581,0 -1.062,0.192 -1.443,0.575c-0.382,0.384 -0.573,0.864 -0.573,1.44Z" style="fill-rule:nonzero;"/></g><g transform="matrix(1,0,0.00479,1,-2.32143,0)"><path d="M247.364,479.684c0,-1.189 0.122,-2.145 0.367,-2.87c0.244,-0.724 0.608,-1.283 1.09,-1.676c0.482,-0.393 1.089,-0.589 1.82,-0.589c0.539,0 1.012,0.108 1.419,0.325c0.407,0.217 0.743,0.531 1.008,0.94c0.265,0.409 0.473,0.907 0.624,1.494c0.15,0.587 0.226,1.379 0.226,2.376c0,1.179 -0.121,2.13 -0.364,2.855c-0.242,0.724 -0.604,1.284 -1.086,1.679c-0.482,0.396 -1.091,0.593 -1.827,0.593c-0.969,0 -1.73,-0.347 -2.283,-1.042c-0.663,-0.836 -0.994,-2.198 -0.994,-4.085Zm1.268,0c0,1.649 0.193,2.747 0.579,3.294c0.387,0.546 0.863,0.819 1.43,0.819c0.567,0 1.043,-0.274 1.429,-0.823c0.386,-0.548 0.58,-1.645 0.58,-3.29c0,-1.655 -0.194,-2.754 -0.58,-3.298c-0.386,-0.544 -0.867,-0.816 -1.443,-0.816c-0.567,0 -1.019,0.24 -1.357,0.72c-0.425,0.612 -0.638,1.744 -0.638,3.394Z" style="fill-rule:nonzero;"/></g><g transform="matrix(1,0,0.00479,1,-2.33378,0)"><rect x="258.408" y="484.182" width="2.706" height="0.886" style="fill-rule:nonzero;"/></g><g transform="matrix(1,0,0.00479,1,-2.33522,0)"><path d="M263.577,483.983c0,-0.848 0.087,-1.531 0.262,-2.048c0.174,-0.517 0.433,-0.916 0.778,-1.196c0.344,-0.281 0.777,-0.421 1.299,-0.421c0.384,0 0.722,0.078 1.012,0.233c0.291,0.154 0.53,0.378 0.719,0.67c0.19,0.292 0.338,0.647 0.446,1.066c0.107,0.42 0.161,0.985 0.161,1.696c0,0.841 -0.086,1.52 -0.259,2.037c-0.173,0.517 -0.432,0.917 -0.776,1.199c-0.344,0.282 -0.778,0.423 -1.303,0.423c-0.692,0 -1.235,-0.248 -1.63,-0.743c-0.473,-0.597 -0.709,-1.569 -0.709,-2.916Zm0.905,0c0,1.177 0.138,1.961 0.413,2.351c0.276,0.389 0.616,0.584 1.021,0.584c0.404,0 0.744,-0.196 1.02,-0.587c0.275,-0.391 0.413,-1.174 0.413,-2.348c0,-1.181 -0.138,-1.966 -0.413,-2.354c-0.276,-0.388 -0.619,-0.582 -1.03,-0.582c-0.405,0 -0.728,0.171 -0.969,0.514c-0.303,0.437 -0.455,1.244 -0.455,2.422Z" style="fill-rule:nonzero;"/><path d="M269.624,487.52l0,-1.003l1.003,0l0,1.003c0,0.369 -0.065,0.666 -0.196,0.893c-0.13,0.227 -0.337,0.402 -0.621,0.526l-0.245,-0.377c0.186,-0.081 0.323,-0.201 0.411,-0.359c0.088,-0.159 0.137,-0.386 0.147,-0.683l-0.499,0Z" style="fill-rule:nonzero;"/><path d="M271.933,485.641l0.925,-0.078c0.069,0.45 0.228,0.788 0.477,1.015c0.25,0.227 0.551,0.34 0.903,0.34c0.424,0 0.783,-0.16 1.076,-0.479c0.294,-0.32 0.44,-0.744 0.44,-1.272c0,-0.503 -0.141,-0.899 -0.423,-1.189c-0.282,-0.291 -0.651,-0.436 -1.108,-0.436c-0.284,0 -0.54,0.065 -0.768,0.194c-0.228,0.128 -0.408,0.296 -0.538,0.501l-0.827,-0.108l0.695,-3.684l3.566,0l0,0.842l-2.862,0l-0.386,1.928c0.43,-0.301 0.882,-0.451 1.355,-0.451c0.626,0 1.155,0.217 1.585,0.651c0.431,0.434 0.646,0.992 0.646,1.673c0,0.649 -0.189,1.21 -0.568,1.683c-0.459,0.581 -1.087,0.871 -1.883,0.871c-0.653,0 -1.185,-0.182 -1.598,-0.548c-0.412,-0.365 -0.648,-0.849 -0.707,-1.453Z" style="fill-rule:nonzero;"/></g></g><g transform="matrix(1,0,-0.00958,1,-65.25,-261.2)"><g transform="matrix(1,0,0.00479,1,-2.28837,0)"><path d="M259.267,476.58l0,-1.966l-1.953,0l0,-0.822l1.953,0l0,-1.952l0.831,0l0,1.952l1.953,0l0,0.822l-1.953,0l0,1.966l-0.831,0Z" style="fill-rule:nonzero;"/></g><g transform="matrix(1,0,0.00479,1,-2.28837,0)"><path d="M263.474,474.203c0,-0.848 0.087,-1.531 0.262,-2.048c0.174,-0.517 0.434,-0.916 0.778,-1.196c0.344,-0.281 0.777,-0.421 1.299,-0.421c0.385,0 0.722,0.078 1.013,0.233c0.29,0.154 0.53,0.378 0.719,0.67c0.189,0.292 0.337,0.647 0.445,1.066c0.108,0.42 0.161,0.985 0.161,1.696c0,0.841 -0.086,1.52 -0.259,2.037c-0.173,0.517 -0.431,0.917 -0.775,1.199c-0.344,0.282 -0.779,0.423 -1.304,0.423c-0.692,0 -1.235,-0.248 -1.629,-0.743c-0.473,-0.597 -0.71,-1.569 -0.71,-2.916Zm0.905,0c0,1.177 0.138,1.961 0.414,2.351c0.275,0.389 0.615,0.584 1.02,0.584c0.404,0 0.744,-0.196 1.02,-0.587c0.276,-0.391 0.413,-1.174 0.413,-2.348c0,-1.181 -0.137,-1.966 -0.413,-2.354c-0.276,-0.388 -0.619,-0.582 -1.03,-0.582c-0.404,0 -0.727,0.171 -0.969,0.514c-0.303,0.437 -0.455,1.244 -0.455,2.422Z" style="fill-rule:nonzero;"/></g></g><g transform="matrix(-0.00239999,-0.999997,1.00002,0.00719999,-65.25,-261.2)"><g transform="matrix(1,0,0.0048,1,-0.499118,0)"><path d="M-412.306,104.115l-1.926,0l0,-7.26c-0.704,0.658 -1.534,1.145 -2.489,1.46l0,-1.748c0.503,-0.164 1.049,-0.476 1.638,-0.936c0.59,-0.459 0.995,-0.995 1.214,-1.607l1.563,0l0,10.091Z" style="fill:#ec008c;fill-rule:nonzero;"/></g><g transform="matrix(1,0,0.0048,1,-0.499219,0)"><path d="M-409.527,96.01l0,-1.789l6.588,0l0,1.398c-0.543,0.535 -1.097,1.303 -1.659,2.304c-0.562,1.001 -0.99,2.064 -1.285,3.191c-0.295,1.126 -0.44,2.133 -0.435,3.02l-1.858,0c0.032,-1.39 0.319,-2.806 0.86,-4.251c0.542,-1.444 1.265,-2.735 2.17,-3.873l-4.381,0Z" style="fill:#ec008c;fill-rule:nonzero;"/></g><g transform="matrix(1,0,0.0048,1,-0.499319,0)"><path d="M-401.455,102.226l1.926,0l0,1.378c0,0.557 -0.048,0.997 -0.144,1.319c-0.096,0.323 -0.277,0.612 -0.545,0.868c-0.267,0.256 -0.606,0.457 -1.018,0.603l-0.377,-0.795c0.389,-0.128 0.665,-0.304 0.83,-0.528c0.164,-0.224 0.251,-0.53 0.26,-0.919l-0.932,0l0,-1.926Z" style="fill:#ec008c;fill-rule:nonzero;"/></g><g transform="matrix(1,0,0.0048,1,-0.499369,0)"><path d="M-397.99,101.577l1.919,-0.199c0.055,0.434 0.217,0.778 0.487,1.032c0.27,0.253 0.581,0.38 0.932,0.38c0.403,0 0.743,-0.163 1.022,-0.49c0.279,-0.327 0.418,-0.819 0.418,-1.477c0,-0.617 -0.138,-1.08 -0.415,-1.389c-0.276,-0.308 -0.636,-0.462 -1.079,-0.462c-0.553,0 -1.049,0.244 -1.488,0.733l-1.563,-0.226l0.987,-5.231l5.094,0l0,1.803l-3.634,0l-0.301,1.707c0.429,-0.214 0.868,-0.322 1.316,-0.322c0.855,0 1.579,0.311 2.173,0.932c0.594,0.622 0.891,1.429 0.891,2.42c0,0.828 -0.24,1.566 -0.719,2.215c-0.654,0.886 -1.561,1.33 -2.722,1.33c-0.928,0 -1.684,-0.249 -2.269,-0.748c-0.585,-0.498 -0.935,-1.167 -1.049,-2.008Z" style="fill:#ec008c;fill-rule:nonzero;"/></g></g><g transform="matrix(-0.00239999,-0.999997,1.00002,0.00719999,-65.25,-261.2)"><g transform="matrix(1,0,0.0048,1,-0.385059,0)"><path d="M-370.084,80.339l0,-2.406l-4.36,0l0,-1.131l4.586,-6.513l1.008,0l0,6.513l1.357,0l0,1.131l-1.357,0l0,2.406l-1.234,0Zm0,-3.537l0,-4.532l-3.147,4.532l3.147,0Z" style="fill-rule:nonzero;"/></g><g transform="matrix(1,0,0.0048,1,-0.38516,0)"><path d="M-362.426,80.358l0,-2.407l-4.36,0l0,-1.131l4.586,-6.512l1.008,0l0,6.512l1.357,0l0,1.131l-1.357,0l0,2.407l-1.234,0Zm0,-3.538l0,-4.531l-3.147,4.531l3.147,0Z" style="fill-rule:nonzero;"/></g></g><path d="M415.578,192.55c-0.511,-0.187 -0.889,-0.455 -1.134,-0.802c-0.246,-0.348 -0.367,-0.763 -0.365,-1.248c0.004,-0.731 0.27,-1.346 0.798,-1.844c0.528,-0.498 1.228,-0.747 2.101,-0.747c0.877,0 1.582,0.255 2.115,0.764c0.532,0.51 0.796,1.13 0.793,1.861c-0.002,0.467 -0.127,0.872 -0.373,1.217c-0.246,0.345 -0.619,0.612 -1.118,0.799c0.616,0.201 1.084,0.525 1.405,0.973c0.32,0.448 0.478,0.983 0.475,1.605c-0.004,0.859 -0.311,1.581 -0.922,2.166c-0.611,0.585 -1.412,0.877 -2.404,0.877c-0.991,0 -1.79,-0.293 -2.395,-0.881c-0.605,-0.587 -0.905,-1.319 -0.901,-2.197c0.003,-0.653 0.171,-1.201 0.505,-1.642c0.333,-0.441 0.807,-0.741 1.42,-0.901Zm-0.237,-2.091c-0.002,0.475 0.149,0.864 0.454,1.165c0.305,0.302 0.701,0.453 1.19,0.453c0.476,0 0.866,-0.15 1.171,-0.449c0.306,-0.3 0.46,-0.666 0.462,-1.1c0.002,-0.453 -0.153,-0.833 -0.465,-1.142c-0.311,-0.308 -0.7,-0.463 -1.166,-0.463c-0.471,0 -0.862,0.151 -1.175,0.453c-0.312,0.301 -0.469,0.663 -0.471,1.083Zm-0.42,4.641c-0.002,0.352 0.08,0.693 0.245,1.022c0.166,0.329 0.412,0.583 0.741,0.764c0.328,0.181 0.682,0.271 1.061,0.271c0.59,0 1.077,-0.19 1.463,-0.569c0.386,-0.38 0.58,-0.862 0.583,-1.447c0.003,-0.594 -0.193,-1.085 -0.586,-1.474c-0.394,-0.388 -0.888,-0.582 -1.482,-0.582c-0.58,0 -1.062,0.192 -1.446,0.575c-0.383,0.384 -0.576,0.864 -0.579,1.44Z" style="fill-rule:nonzero;"/><g transform="matrix(1,0,-0.00958,1,-65.25,-261.2)"><g transform="matrix(1,0,0.00479,1,-1.30432,0)"><path d="M431.934,264.711l-1.227,0.096c-0.109,-0.484 -0.265,-0.836 -0.466,-1.056c-0.334,-0.352 -0.745,-0.528 -1.234,-0.528c-0.393,0 -0.738,0.11 -1.035,0.329c-0.389,0.284 -0.695,0.697 -0.919,1.241c-0.224,0.544 -0.34,1.319 -0.349,2.324c0.297,-0.452 0.66,-0.788 1.09,-1.007c0.429,-0.22 0.879,-0.33 1.35,-0.33c0.823,0 1.523,0.303 2.101,0.909c0.579,0.605 0.868,1.388 0.868,2.348c0,0.63 -0.136,1.217 -0.408,1.758c-0.272,0.542 -0.646,0.957 -1.121,1.244c-0.475,0.288 -1.015,0.432 -1.618,0.432c-1.028,0 -1.867,-0.378 -2.516,-1.134c-0.649,-0.757 -0.973,-2.003 -0.973,-3.74c0,-1.942 0.358,-3.354 1.076,-4.237c0.626,-0.767 1.469,-1.151 2.529,-1.151c0.791,0 1.439,0.221 1.944,0.665c0.505,0.443 0.808,1.055 0.908,1.837Zm-5.038,4.333c0,0.425 0.09,0.831 0.27,1.22c0.181,0.388 0.433,0.684 0.758,0.888c0.324,0.203 0.665,0.305 1.021,0.305c0.521,0 0.969,-0.21 1.344,-0.631c0.375,-0.42 0.562,-0.992 0.562,-1.714c0,-0.694 -0.185,-1.242 -0.555,-1.642c-0.37,-0.4 -0.836,-0.6 -1.399,-0.6c-0.557,0 -1.03,0.2 -1.419,0.6c-0.388,0.4 -0.582,0.925 -0.582,1.574Z" style="fill-rule:nonzero;"/><path d="M432.76,272.3l2.66,-3.784l-2.461,-3.497l1.542,0l1.118,1.707c0.21,0.325 0.379,0.597 0.507,0.816c0.201,-0.301 0.386,-0.569 0.555,-0.802l1.227,-1.721l1.474,0l-2.516,3.428l2.708,3.853l-1.515,0l-1.494,-2.262l-0.398,-0.61l-1.913,2.872l-1.494,0Z" style="fill-rule:nonzero;"/><path d="M444.115,272.3l0,-2.406l-4.36,0l0,-1.131l4.587,-6.513l1.007,0l0,6.513l1.358,0l0,1.131l-1.358,0l0,2.406l-1.234,0Zm0,-3.537l0,-4.532l-3.146,4.532l3.146,0Z" style="fill-rule:nonzero;"/><path d="M447.868,269.667l1.296,-0.109c0.096,0.631 0.319,1.105 0.668,1.422c0.35,0.318 0.771,0.477 1.265,0.477c0.594,0 1.097,-0.224 1.508,-0.672c0.412,-0.448 0.617,-1.042 0.617,-1.782c0,-0.704 -0.197,-1.26 -0.593,-1.666c-0.395,-0.407 -0.913,-0.611 -1.553,-0.611c-0.397,0 -0.756,0.091 -1.076,0.271c-0.32,0.181 -0.571,0.415 -0.754,0.703l-1.159,-0.151l0.974,-5.162l4.998,0l0,1.179l-4.011,0l-0.541,2.701c0.603,-0.42 1.236,-0.631 1.899,-0.631c0.877,0 1.617,0.304 2.221,0.912c0.603,0.608 0.905,1.39 0.905,2.345c0,0.909 -0.265,1.695 -0.796,2.358c-0.644,0.814 -1.524,1.22 -2.639,1.22c-0.914,0 -1.66,-0.256 -2.238,-0.767c-0.578,-0.512 -0.909,-1.191 -0.991,-2.037Z" style="fill-rule:nonzero;"/></g><g transform="matrix(1,0,0.00479,1,-1.30432,0)"><path d="M455.871,263.977c0,-0.525 0.187,-0.973 0.559,-1.343c0.372,-0.37 0.819,-0.556 1.34,-0.556c0.53,0 0.981,0.186 1.351,0.556c0.37,0.37 0.555,0.818 0.555,1.343c0,0.526 -0.186,0.975 -0.559,1.348c-0.372,0.372 -0.821,0.558 -1.347,0.558c-0.521,0 -0.968,-0.185 -1.34,-0.555c-0.372,-0.37 -0.559,-0.82 -0.559,-1.351Zm0.748,0c0,0.32 0.113,0.593 0.339,0.82c0.226,0.226 0.499,0.339 0.819,0.339c0.315,0 0.586,-0.113 0.812,-0.339c0.227,-0.227 0.34,-0.5 0.34,-0.82c0,-0.319 -0.113,-0.593 -0.34,-0.819c-0.226,-0.226 -0.497,-0.339 -0.812,-0.339c-0.32,0 -0.593,0.113 -0.819,0.339c-0.226,0.226 -0.339,0.5 -0.339,0.819Z" style="fill-rule:nonzero;"/></g></g><path d="M81.75,6.72l-7.02,-0.66" style="fill:none;stroke:#000;stroke-width:0.72px;"/><path d="M81.93,5.28l-7.2,0.78l7.2,-0.78Z" style="fill-rule:nonzero;stroke:#000;stroke-width:0.72px;"/><path d="M81.93,5.28l-7.2,0.78l6.9,2.04l0.3,-2.82Z" style="fill-rule:nonzero;stroke:#000;stroke-width:0.72px;"/><path d="M81.93,5.28l-7.2,0.78l6.9,2.04l0.3,-2.82" style="fill:none;stroke:#000;stroke-width:0.72px;"/><path d="M112.59,42.78l-0.42,7.08" style="fill:none;stroke:#000;stroke-width:0.72px;"/><path d="M111.21,42.72l0.96,7.14l-0.96,-7.14Z" style="fill-rule:nonzero;stroke:#000;stroke-width:0.72px;"/><path d="M111.21,42.72l0.96,7.14l1.86,-6.96l-2.82,-0.18Z" style="fill-rule:nonzero;stroke:#000;stroke-width:0.72px;"/><path d="M111.21,42.72l0.96,7.14l1.86,-6.96l-2.82,-0.18" style="fill:none;stroke:#000;stroke-width:0.72px;"/><path d="M112.573,42.81c-0.535,-17.768 -13.349,-32.774 -30.813,-36.086" style="fill:none;stroke:#000;stroke-width:0.72px;"/><path d="M74.73,43.98l0,-43.62" style="fill:none;stroke:#000;stroke-width:0.72px;"/><path d="M324.15,161.58l0,7.08" style="fill:none;stroke:#000;stroke-width:0.72px;"/><path d="M322.77,161.58l1.38,7.08l-1.38,-7.08Z" style="fill-rule:nonzero;stroke:#000;stroke-width:0.72px;"/><path d="M322.77,161.58l1.38,7.08l1.44,-7.08l-2.82,0Z" style="fill-rule:nonzero;stroke:#000;stroke-width:0.72px;"/><path d="M322.77,161.58l1.38,7.08l1.44,-7.08l-2.82,0" style="fill:none;stroke:#000;stroke-width:0.72px;"/><path d="M324.15,147.42l0,-7.08" style="fill:none;stroke:#000;stroke-width:0.72px;"/><path d="M325.59,147.42l-1.44,-7.08l1.44,7.08Z" style="fill-rule:nonzero;stroke:#000;stroke-width:0.72px;"/><path d="M325.59,147.42l-1.44,-7.08l-1.38,7.08l2.82,0Z" style="fill-rule:nonzero;stroke:#000;stroke-width:0.72px;"/><path d="M325.59,147.42l-1.44,-7.08l-1.38,7.08l2.82,0" style="fill:none;stroke:#000;stroke-width:0.72px;"/><path d="M324.15,161.58l0,-14.16" style="fill:none;stroke:#000;stroke-width:0.72px;"/><path d="M244.77,140.34l85.08,0" style="fill:none;stroke:#000;stroke-width:0.72px;"/><path d="M244.77,168.66l85.08,0" style="fill:none;stroke:#000;stroke-width:0.72px;"/><path d="M251.91,202.68l-7.14,0" style="fill:none;stroke:#000;stroke-width:0.72px;"/><path d="M251.91,201.3l-7.14,1.38l7.14,-1.38Z" style="fill-rule:nonzero;stroke:#000;stroke-width:0.72px;"/><path d="M251.91,201.3l-7.14,1.38l7.14,1.44l0,-2.82Z" style="fill-rule:nonzero;stroke:#000;stroke-width:0.72px;"/><path d="M251.91,201.3l-7.14,1.38l7.14,1.44l0,-2.82" style="fill:none;stroke:#000;stroke-width:0.72px;"/><path d="M294.39,202.68l7.08,0" style="fill:none;stroke:#000;stroke-width:0.72px;"/><path d="M294.39,204.12l7.08,-1.44l-7.08,1.44Z" style="fill-rule:nonzero;stroke:#000;stroke-width:0.72px;"/><path d="M294.39,204.12l7.08,-1.44l-7.08,-1.38l0,2.82Z" style="fill-rule:nonzero;stroke:#000;stroke-width:0.72px;"/><path d="M294.39,204.12l7.08,-1.44l-7.08,-1.38l0,2.82" style="fill:none;stroke:#000;stroke-width:0.72px;"/><path d="M251.91,202.68l42.48,0" style="fill:none;stroke:#000;stroke-width:0.72px;"/><path d="M244.77,140.34l0,68.04" style="fill:none;stroke:#000;stroke-width:0.72px;"/><path d="M301.47,140.34l0,68.04" style="fill:none;stroke:#000;stroke-width:0.72px;"/><path d="M237.69,202.68l7.08,0" style="fill:none;stroke:#000;stroke-width:0.72px;"/><path d="M237.69,204.12l7.08,-1.44l-7.08,1.44Z" style="fill-rule:nonzero;stroke:#000;stroke-width:0.72px;"/><path d="M237.69,204.12l7.08,-1.44l-7.08,-1.38l0,2.82Z" style="fill-rule:nonzero;stroke:#000;stroke-width:0.72px;"/><path d="M237.69,204.12l7.08,-1.44l-7.08,-1.38l0,2.82" style="fill:none;stroke:#000;stroke-width:0.72px;"/><path d="M110.13,202.68l-7.08,0" style="fill:none;stroke:#000;stroke-width:0.72px;"/><path d="M110.13,201.3l-7.08,1.38l7.08,-1.38Z" style="fill-rule:nonzero;stroke:#000;stroke-width:0.72px;"/><path d="M110.13,201.3l-7.08,1.38l7.08,1.44l0,-2.82Z" style="fill-rule:nonzero;stroke:#000;stroke-width:0.72px;"/><path d="M110.13,201.3l-7.08,1.38l7.08,1.44l0,-2.82" style="fill:none;stroke:#000;stroke-width:0.72px;"/><path d="M237.69,202.68l-127.56,0" style="fill:none;stroke:#000;stroke-width:0.72px;"/><path d="M244.77,168.66l0,39.72" style="fill:none;stroke:#000;stroke-width:0.72px;"/><path d="M103.05,140.88l0,67.5" style="fill:none;stroke:#000;stroke-width:0.72px;"/><path d="M81.81,232.26l-7.08,0" style="fill:none;stroke:#000;stroke-width:0.72px;"/><path d="M81.81,230.82l-7.08,1.44l7.08,-1.44Z" style="fill-rule:nonzero;stroke:#000;stroke-width:0.72px;"/><path d="M81.81,230.82l-7.08,1.44l7.08,1.38l0,-2.82Z" style="fill-rule:nonzero;stroke:#000;stroke-width:0.72px;"/><path d="M81.81,230.82l-7.08,1.44l7.08,1.38l0,-2.82" style="fill:none;stroke:#000;stroke-width:0.72px;"/><path d="M294.39,232.26l7.08,0" style="fill:none;stroke:#000;stroke-width:0.72px;"/><path d="M294.39,233.64l7.08,-1.38l-7.08,1.38Z" style="fill-rule:nonzero;stroke:#000;stroke-width:0.72px;"/><path d="M294.39,233.64l7.08,-1.38l-7.08,-1.44l0,2.82Z" style="fill-rule:nonzero;stroke:#000;stroke-width:0.72px;"/><path d="M294.39,233.64l7.08,-1.38l-7.08,-1.44l0,2.82" style="fill:none;stroke:#000;stroke-width:0.72px;"/><path d="M81.81,232.26l212.58,0" style="fill:none;stroke:#000;stroke-width:0.72px;"/><path d="M74.73,168.66l0,69.24" style="fill:none;stroke:#000;stroke-width:0.72px;"/><path d="M301.47,140.34l0,97.56" style="fill:none;stroke:#000;stroke-width:0.72px;"/><path d="M46.35,126.18l0,-7.14" style="fill:none;stroke:#000;stroke-width:0.72px;"/><path d="M47.79,126.18l-1.44,-7.14l1.44,7.14Z" style="fill-rule:nonzero;stroke:#000;stroke-width:0.72px;"/><path d="M47.79,126.18l-1.44,-7.14l-1.38,7.14l2.82,0Z" style="fill-rule:nonzero;stroke:#000;stroke-width:0.72px;"/><path d="M47.79,126.18l-1.44,-7.14l-1.38,7.14l2.82,0" style="fill:none;stroke:#000;stroke-width:0.72px;"/><path d="M46.35,161.58l0,7.08" style="fill:none;stroke:#000;stroke-width:0.72px;"/><path d="M44.97,161.58l1.38,7.08l-1.38,-7.08Z" style="fill-rule:nonzero;stroke:#000;stroke-width:0.72px;"/><path d="M44.97,161.58l1.38,7.08l1.44,-7.08l-2.82,0Z" style="fill-rule:nonzero;stroke:#000;stroke-width:0.72px;"/><path d="M44.97,161.58l1.38,7.08l1.44,-7.08l-2.82,0" style="fill:none;stroke:#000;stroke-width:0.72px;"/><path d="M46.35,126.18l0,35.4" style="fill:none;stroke:#000;stroke-width:0.72px;"/><path d="M74.73,168.66l-34.02,0" style="fill:none;stroke:#000;stroke-width:0.72px;"/><path d="M81.21,119.04l-40.5,0" style="fill:none;stroke:#000;stroke-width:0.72px;"/><path d="M20.49,51.06l0,-7.08" style="fill:none;stroke:#000;stroke-width:0.72px;"/><path d="M21.93,51.06l-1.44,-7.08l1.44,7.08Z" style="fill-rule:nonzero;stroke:#000;stroke-width:0.72px;"/><path d="M21.93,51.06l-1.44,-7.08l-1.38,7.08l2.82,0Z" style="fill-rule:nonzero;stroke:#000;stroke-width:0.72px;"/><path d="M21.93,51.06l-1.44,-7.08l-1.38,7.08l2.82,0" style="fill:none;stroke:#000;stroke-width:0.72px;"/><path d="M20.49,161.58l0,7.08" style="fill:none;stroke:#000;stroke-width:0.72px;"/><path d="M19.11,161.58l1.38,7.08l-1.38,-7.08Z" style="fill-rule:nonzero;stroke:#000;stroke-width:0.72px;"/><path d="M19.11,161.58l1.38,7.08l1.44,-7.08l-2.82,0Z" style="fill-rule:nonzero;stroke:#000;stroke-width:0.72px;"/><path d="M19.11,161.58l1.38,7.08l1.44,-7.08l-2.82,0" style="fill:none;stroke:#000;stroke-width:0.72px;"/><path d="M20.49,51.06l0,110.52" style="fill:none;stroke:#000;stroke-width:0.72px;"/><path d="M74.73,43.98l-59.88,0" style="fill:none;stroke:#000;stroke-width:0.72px;"/><path d="M74.73,168.66l-59.88,0" style="fill:none;stroke:#000;stroke-width:0.72px;"/><path d="M412.65,202.68l-7.08,0" style="fill:none;stroke:#000;stroke-width:0.72px;"/><path d="M412.65,201.3l-7.08,1.38l7.08,-1.38Z" style="fill-rule:nonzero;stroke:#000;stroke-width:0.72px;"/><path d="M412.65,201.3l-7.08,1.38l7.08,1.44l0,-2.82Z" style="fill-rule:nonzero;stroke:#000;stroke-width:0.72px;"/><path d="M412.65,201.3l-7.08,1.38l7.08,1.44l0,-2.82" style="fill:none;stroke:#000;stroke-width:0.72px;"/><path d="M421.17,202.68l7.08,0" style="fill:none;stroke:#000;stroke-width:0.72px;"/><path d="M421.17,204.12l7.08,-1.44l-7.08,1.44Z" style="fill-rule:nonzero;stroke:#000;stroke-width:0.72px;"/><path d="M421.17,204.12l7.08,-1.44l-7.08,-1.38l0,2.82Z" style="fill-rule:nonzero;stroke:#000;stroke-width:0.72px;"/><path d="M421.17,204.12l7.08,-1.44l-7.08,-1.38l0,2.82" style="fill:none;stroke:#000;stroke-width:0.72px;"/><path d="M412.65,202.68l8.52,0" style="fill:none;stroke:#000;stroke-width:0.72px;"/><path d="M405.57,168.66l0,39.72" style="fill:none;stroke:#000;stroke-width:0.72px;"/><path d="M428.25,168.66l0,39.72" style="fill:none;stroke:#000;stroke-width:0.72px;"/><path d="M398.49,15.84l7.08,0" style="fill:none;stroke:#000;stroke-width:0.72px;"/><path d="M398.49,17.22l7.08,-1.38l-7.08,1.38Z" style="fill-rule:nonzero;stroke:#000;stroke-width:0.72px;"/><path d="M398.49,17.22l7.08,-1.38l-7.08,-1.44l0,2.82Z" style="fill-rule:nonzero;stroke:#000;stroke-width:0.72px;"/><path d="M398.49,17.22l7.08,-1.38l-7.08,-1.44l0,2.82" style="fill:none;stroke:#000;stroke-width:0.72px;"/><path d="M429.69,15.84l-7.08,0" style="fill:none;stroke:#000;stroke-width:0.72px;"/><path d="M429.69,14.4l-7.08,1.44l7.08,-1.44Z" style="fill-rule:nonzero;stroke:#000;stroke-width:0.72px;"/><path d="M429.69,14.4l-7.08,1.44l7.08,1.38l0,-2.82Z" style="fill-rule:nonzero;stroke:#000;stroke-width:0.72px;"/><path d="M429.69,14.4l-7.08,1.44l7.08,1.38l0,-2.82" style="fill:none;stroke:#000;stroke-width:0.72px;"/><path d="M405.57,15.84l17.04,0" style="fill:none;stroke:#000;stroke-width:0.72px;"/><path d="M398.49,15.84l-7.08,0" style="fill:none;stroke:#000;stroke-width:0.72px;"/><path d="M429.69,15.84l7.08,0" style="fill:none;stroke:#000;stroke-width:0.72px;"/><path d="M422.61,43.98l0,-33.84" style="fill:none;stroke:#000;stroke-width:0.72px;"/><path d="M405.57,61.2l0,-51.06" style="fill:none;stroke:#000;stroke-width:0.72px;"/><path d="M354.81,15.84l36.6,0" style="fill:none;stroke:#000;stroke-width:0.72px;"/><g transform="matrix(-0.00239999,-0.999997,1.00002,0.00719999,-65.25,-261.2)"><path d="M-348.947,425.508l1.149,-1.285l0.676,0.574l-1.203,1.353c0.392,0.584 0.656,1.094 0.793,1.532c0.182,0.574 0.274,1.216 0.274,1.927c0,1.026 -0.208,1.939 -0.622,2.742c-0.415,0.802 -0.997,1.408 -1.747,1.818c-0.75,0.41 -1.546,0.615 -2.389,0.615c-0.629,0 -1.199,-0.089 -1.709,-0.266c-0.392,-0.137 -0.85,-0.399 -1.374,-0.787l-1.149,1.286l-0.676,-0.575l1.203,-1.346c-0.447,-0.679 -0.745,-1.259 -0.896,-1.74c-0.15,-0.481 -0.225,-1.058 -0.225,-1.733c0,-1.03 0.205,-1.947 0.615,-2.751c0.41,-0.805 0.985,-1.414 1.726,-1.829c0.74,-0.415 1.564,-0.622 2.471,-0.622c0.611,0 1.145,0.081 1.603,0.243c0.458,0.161 0.951,0.443 1.48,0.844Zm-0.82,0.923c-0.429,-0.338 -0.803,-0.568 -1.125,-0.691c-0.321,-0.123 -0.698,-0.184 -1.131,-0.184c-0.998,0 -1.823,0.338 -2.475,1.015c-0.651,0.677 -0.977,1.687 -0.977,3.032c0,0.528 0.05,0.998 0.15,1.408c0.073,0.305 0.226,0.681 0.458,1.128l5.1,-5.708Zm0.56,0.704l-5.079,5.687c0.351,0.287 0.675,0.488 0.971,0.602c0.387,0.15 0.807,0.225 1.258,0.225c0.993,0 1.814,-0.351 2.461,-1.052c0.647,-0.702 0.97,-1.687 0.97,-2.953c0,-0.948 -0.193,-1.785 -0.581,-2.509Z" style="fill-rule:nonzero;"/><g transform="matrix(1,0,0.0048,1,-2.08575,0)"><path d="M-346.219,432.008l1.295,-0.11c0.096,0.631 0.319,1.105 0.669,1.422c0.349,0.318 0.771,0.477 1.264,0.477c0.595,0 1.097,-0.224 1.509,-0.672c0.411,-0.448 0.617,-1.042 0.617,-1.782c0,-0.704 -0.198,-1.26 -0.593,-1.666c-0.396,-0.407 -0.913,-0.61 -1.553,-0.61c-0.398,0 -0.756,0.09 -1.076,0.27c-0.32,0.181 -0.572,0.415 -0.755,0.703l-1.158,-0.151l0.973,-5.162l4.998,0l0,1.179l-4.01,0l-0.542,2.701c0.603,-0.42 1.236,-0.63 1.899,-0.63c0.877,0 1.618,0.303 2.221,0.911c0.603,0.608 0.905,1.39 0.905,2.345c0,0.909 -0.265,1.695 -0.795,2.358c-0.645,0.814 -1.524,1.22 -2.64,1.22c-0.914,0 -1.66,-0.255 -2.238,-0.767c-0.578,-0.512 -0.908,-1.191 -0.99,-2.036Z" style="fill-rule:nonzero;"/></g><g transform="matrix(1,0,0.0048,1,-2.08585,0)"><path d="M-337.896,434.658l0,-1.405l1.405,0l0,1.405c0,0.517 -0.091,0.934 -0.274,1.252c-0.183,0.317 -0.473,0.563 -0.871,0.737l-0.342,-0.528c0.26,-0.115 0.452,-0.283 0.576,-0.504c0.123,-0.222 0.191,-0.541 0.205,-0.957l-0.699,0Z" style="fill-rule:nonzero;"/></g><g transform="matrix(1,0,0.0048,1,-2.0859,0)"><path d="M-334.66,432.035l1.295,-0.109c0.096,0.63 0.319,1.104 0.669,1.422c0.349,0.318 0.771,0.476 1.265,0.476c0.594,0 1.097,-0.223 1.508,-0.671c0.411,-0.448 0.617,-1.042 0.617,-1.783c0,-0.704 -0.198,-1.259 -0.593,-1.666c-0.395,-0.406 -0.913,-0.61 -1.553,-0.61c-0.398,0 -0.756,0.09 -1.076,0.271c-0.32,0.181 -0.572,0.415 -0.754,0.703l-1.159,-0.151l0.974,-5.162l4.997,0l0,1.179l-4.01,0l-0.542,2.701c0.603,-0.421 1.236,-0.631 1.899,-0.631c0.878,0 1.618,0.304 2.221,0.912c0.604,0.608 0.905,1.389 0.905,2.345c0,0.909 -0.265,1.695 -0.795,2.358c-0.644,0.813 -1.524,1.22 -2.639,1.22c-0.914,0 -1.661,-0.256 -2.239,-0.768c-0.578,-0.512 -0.908,-1.19 -0.99,-2.036Z" style="fill-rule:nonzero;"/></g></g><g transform="matrix(-0.00239999,-0.999997,1.00002,0.00719999,-65.25,-261.2)"><path d="M-349.68,507.044l1.149,-1.285l0.676,0.574l-1.203,1.354c0.392,0.583 0.656,1.094 0.793,1.531c0.182,0.574 0.274,1.217 0.274,1.928c0,1.025 -0.208,1.939 -0.622,2.741c-0.415,0.802 -0.997,1.408 -1.747,1.819c-0.75,0.41 -1.546,0.615 -2.389,0.615c-0.629,0 -1.199,-0.089 -1.709,-0.267c-0.392,-0.137 -0.85,-0.399 -1.374,-0.786l-1.149,1.285l-0.676,-0.574l1.203,-1.347c-0.447,-0.679 -0.745,-1.259 -0.896,-1.739c-0.15,-0.481 -0.225,-1.059 -0.225,-1.733c0,-1.03 0.205,-1.947 0.615,-2.752c0.41,-0.804 0.985,-1.414 1.726,-1.828c0.741,-0.415 1.564,-0.623 2.471,-0.623c0.611,0 1.145,0.081 1.603,0.243c0.458,0.162 0.952,0.443 1.48,0.844Zm-0.82,0.923c-0.429,-0.337 -0.803,-0.567 -1.125,-0.69c-0.321,-0.123 -0.698,-0.185 -1.131,-0.185c-0.998,0 -1.823,0.339 -2.475,1.015c-0.651,0.677 -0.977,1.688 -0.977,3.032c0,0.529 0.05,0.998 0.15,1.408c0.073,0.306 0.226,0.682 0.458,1.128l5.1,-5.708Zm0.56,0.704l-5.079,5.688c0.351,0.287 0.675,0.487 0.971,0.601c0.387,0.151 0.807,0.226 1.258,0.226c0.993,0 1.814,-0.351 2.461,-1.053c0.647,-0.702 0.97,-1.686 0.97,-2.953c0,-0.948 -0.193,-1.784 -0.581,-2.509Z" style="fill-rule:nonzero;"/><g transform="matrix(1,0,0.0048,1,-2.47712,0)"><path d="M-342.304,516.177l-1.234,0l0,-7.864c-0.297,0.284 -0.687,0.567 -1.169,0.85c-0.482,0.284 -0.915,0.496 -1.299,0.638l0,-1.193c0.69,-0.324 1.293,-0.717 1.81,-1.179c0.516,-0.462 0.882,-0.91 1.096,-1.344l0.796,0l0,10.092Z" style="fill-rule:nonzero;"/></g><g transform="matrix(1,0,0.0048,1,-2.47722,0)"><path d="M-339.244,511.239c0,-1.189 0.122,-2.145 0.367,-2.869c0.244,-0.725 0.608,-1.284 1.09,-1.677c0.482,-0.393 1.089,-0.589 1.82,-0.589c0.539,0 1.012,0.108 1.419,0.325c0.407,0.218 0.743,0.531 1.008,0.94c0.265,0.409 0.473,0.907 0.624,1.494c0.15,0.587 0.226,1.379 0.226,2.376c0,1.179 -0.121,2.13 -0.363,2.855c-0.243,0.724 -0.605,1.284 -1.087,1.679c-0.482,0.396 -1.091,0.593 -1.827,0.593c-0.969,0 -1.73,-0.347 -2.283,-1.042c-0.663,-0.836 -0.994,-2.198 -0.994,-4.085Zm1.268,0c0,1.649 0.193,2.747 0.58,3.294c0.386,0.546 0.862,0.819 1.429,0.819c0.567,0 1.043,-0.274 1.429,-0.823c0.386,-0.548 0.58,-1.645 0.58,-3.29c0,-1.655 -0.194,-2.754 -0.58,-3.298c-0.386,-0.544 -0.867,-0.816 -1.443,-0.816c-0.567,0 -1.019,0.24 -1.357,0.72c-0.425,0.613 -0.638,1.744 -0.638,3.394Z" style="fill-rule:nonzero;"/></g><g transform="matrix(1,0,0.0048,1,-2.47732,0)"><path d="M-330.871,516.214l0,-1.406l1.406,0l0,1.406c0,0.516 -0.092,0.933 -0.274,1.251c-0.183,0.317 -0.473,0.563 -0.871,0.737l-0.343,-0.528c0.261,-0.115 0.453,-0.282 0.576,-0.504c0.123,-0.222 0.192,-0.541 0.206,-0.956l-0.7,0Z" style="fill-rule:nonzero;"/></g><g transform="matrix(1,0,0.0048,1,-2.47737,0)"><path d="M-323.779,516.223l0,-2.407l-4.36,0l0,-1.131l4.586,-6.512l1.008,0l0,6.512l1.357,0l0,1.131l-1.357,0l0,2.407l-1.234,0Zm0,-3.538l0,-4.531l-3.147,4.531l3.147,0Z" style="fill-rule:nonzero;"/></g><g transform="matrix(1,0,0.0048,1,-2.47747,0)"><path d="M-320.506,516.241l2.66,-3.784l-2.461,-3.496l1.542,0l1.117,1.707c0.211,0.324 0.38,0.596 0.508,0.816c0.201,-0.302 0.386,-0.569 0.555,-0.802l1.227,-1.721l1.474,0l-2.516,3.428l2.708,3.852l-1.515,0l-1.495,-2.262l-0.397,-0.61l-1.913,2.872l-1.494,0Z" style="fill-rule:nonzero;"/></g><g transform="matrix(1,0,0.0048,1,-2.47756,0)"><path d="M-312.921,513.934l1.186,-0.11c0.1,0.558 0.292,0.962 0.576,1.214c0.283,0.251 0.646,0.377 1.09,0.377c0.379,0 0.711,-0.087 0.997,-0.261c0.286,-0.174 0.52,-0.405 0.703,-0.696c0.183,-0.29 0.336,-0.682 0.459,-1.175c0.123,-0.494 0.185,-0.997 0.185,-1.509c0,-0.054 -0.002,-0.137 -0.007,-0.246c-0.247,0.393 -0.584,0.711 -1.011,0.956c-0.427,0.244 -0.89,0.367 -1.388,0.367c-0.832,0 -1.536,-0.302 -2.112,-0.905c-0.575,-0.604 -0.863,-1.399 -0.863,-2.386c0,-1.019 0.3,-1.839 0.901,-2.461c0.601,-0.622 1.354,-0.932 2.259,-0.932c0.654,0 1.251,0.176 1.793,0.527c0.541,0.352 0.953,0.854 1.234,1.505c0.281,0.652 0.421,1.594 0.421,2.828c0,1.284 -0.139,2.307 -0.418,3.068c-0.279,0.761 -0.693,1.34 -1.244,1.738c-0.551,0.397 -1.196,0.596 -1.937,0.596c-0.786,0 -1.428,-0.218 -1.926,-0.654c-0.498,-0.437 -0.798,-1.05 -0.898,-1.841Zm5.052,-4.436c0,-0.708 -0.188,-1.27 -0.565,-1.686c-0.377,-0.416 -0.831,-0.624 -1.361,-0.624c-0.549,0 -1.026,0.224 -1.433,0.672c-0.407,0.448 -0.61,1.028 -0.61,1.741c0,0.64 0.193,1.16 0.579,1.56c0.386,0.4 0.863,0.6 1.43,0.6c0.571,0 1.04,-0.2 1.408,-0.6c0.368,-0.4 0.552,-0.954 0.552,-1.663Z" style="fill-rule:nonzero;"/></g><g transform="matrix(1,0,0.0048,1,-2.47766,0)"><path d="M-305.398,511.32c0,-1.188 0.122,-2.145 0.367,-2.869c0.244,-0.724 0.608,-1.283 1.09,-1.676c0.482,-0.393 1.089,-0.59 1.82,-0.59c0.539,0 1.012,0.109 1.419,0.326c0.407,0.217 0.743,0.53 1.008,0.939c0.265,0.409 0.473,0.907 0.624,1.495c0.15,0.587 0.226,1.379 0.226,2.375c0,1.179 -0.121,2.131 -0.364,2.855c-0.242,0.725 -0.604,1.285 -1.086,1.68c-0.482,0.395 -1.091,0.593 -1.827,0.593c-0.969,0 -1.73,-0.348 -2.283,-1.042c-0.663,-0.837 -0.994,-2.199 -0.994,-4.086Zm1.268,0c0,1.65 0.193,2.748 0.58,3.294c0.386,0.546 0.862,0.819 1.429,0.819c0.567,0 1.043,-0.274 1.429,-0.822c0.386,-0.549 0.58,-1.646 0.58,-3.291c0,-1.655 -0.194,-2.754 -0.58,-3.298c-0.386,-0.543 -0.867,-0.815 -1.443,-0.815c-0.567,0 -1.019,0.24 -1.357,0.719c-0.425,0.613 -0.638,1.744 -0.638,3.394Z" style="fill-rule:nonzero;"/></g><g transform="matrix(1,0,0.0048,1,-2.47776,0)"><path d="M-297.395,507.972c0,-0.525 0.186,-0.973 0.559,-1.343c0.372,-0.371 0.819,-0.556 1.34,-0.556c0.53,0 0.98,0.185 1.351,0.556c0.37,0.37 0.555,0.818 0.555,1.343c0,0.526 -0.186,0.975 -0.559,1.347c-0.372,0.373 -0.821,0.559 -1.347,0.559c-0.521,0 -0.968,-0.185 -1.34,-0.555c-0.373,-0.37 -0.559,-0.821 -0.559,-1.351Zm0.747,0c0,0.32 0.114,0.593 0.34,0.82c0.226,0.226 0.499,0.339 0.819,0.339c0.315,0 0.586,-0.113 0.812,-0.339c0.227,-0.227 0.34,-0.5 0.34,-0.82c0,-0.32 -0.113,-0.593 -0.34,-0.819c-0.226,-0.226 -0.497,-0.339 -0.812,-0.339c-0.32,0 -0.593,0.113 -0.819,0.339c-0.226,0.226 -0.34,0.499 -0.34,0.819Z" style="fill-rule:nonzero;"/></g></g><path d="M377.25,104.16l0,7.14" style="fill:none;stroke:#000;stroke-width:0.72px;"/><path d="M375.81,104.16l1.44,7.14l-1.44,-7.14Z" style="fill-rule:nonzero;stroke:#000;stroke-width:0.72px;"/><path d="M375.81,104.16l1.44,7.14l1.44,-7.14l-2.88,0Z" style="fill-rule:nonzero;stroke:#000;stroke-width:0.72px;"/><path d="M375.81,104.16l1.44,7.14l1.44,-7.14l-2.88,0" style="fill:none;stroke:#000;stroke-width:0.72px;"/><path d="M377.25,133.98l0,-7.14" style="fill:none;stroke:#000;stroke-width:0.72px;"/><path d="M378.69,133.98l-1.44,-7.14l1.44,7.14Z" style="fill-rule:nonzero;stroke:#000;stroke-width:0.72px;"/><path d="M378.69,133.98l-1.44,-7.14l-1.44,7.14l2.88,0Z" style="fill-rule:nonzero;stroke:#000;stroke-width:0.72px;"/><path d="M378.69,133.98l-1.44,-7.14l-1.44,7.14l2.88,0" style="fill:none;stroke:#000;stroke-width:0.72px;"/><path d="M377.25,111.3l0,15.54" style="fill:none;stroke:#000;stroke-width:0.72px;"/><path d="M377.25,104.16l0,-7.08" style="fill:none;stroke:#000;stroke-width:0.72px;"/><path d="M377.25,133.98l0,7.08" style="fill:none;stroke:#000;stroke-width:0.72px;"/><path d="M405.57,111.3l-34.02,0" style="fill:none;stroke:#000;stroke-width:0.72px;"/><path d="M405.57,126.84l-34.02,0" style="fill:none;stroke:#000;stroke-width:0.72px;"/><path d="M377.25,66.72l0,30.36" style="fill:none;stroke:#000;stroke-width:0.72px;"/><path d="M458.79,111.42l0,-7.08" style="fill:none;stroke:#000;stroke-width:0.72px;"/><path d="M460.17,111.42l-1.38,-7.08l1.38,7.08Z" style="fill-rule:nonzero;stroke:#000;stroke-width:0.72px;"/><path d="M460.17,111.42l-1.38,-7.08l-1.44,7.08l2.82,0Z" style="fill-rule:nonzero;stroke:#000;stroke-width:0.72px;"/><path d="M460.17,111.42l-1.38,-7.08l-1.44,7.08l2.82,0" style="fill:none;stroke:#000;stroke-width:0.72px;"/><path d="M458.79,126.72l0,7.08" style="fill:none;stroke:#000;stroke-width:0.72px;"/><path d="M457.35,126.72l1.44,7.08l-1.44,-7.08Z" style="fill-rule:nonzero;stroke:#000;stroke-width:0.72px;"/><path d="M457.35,126.72l1.44,7.08l1.38,-7.08l-2.82,0Z" style="fill-rule:nonzero;stroke:#000;stroke-width:0.72px;"/><path d="M457.35,126.72l1.44,7.08l1.38,-7.08l-2.82,0" style="fill:none;stroke:#000;stroke-width:0.72px;"/><path d="M458.79,111.42l0,15.3" style="fill:none;stroke:#000;stroke-width:0.72px;"/><path d="M428.25,133.8l36.18,0" style="fill:none;stroke:#000;stroke-width:0.72px;"/><path d="M428.25,104.34l36.18,0" style="fill:none;stroke:#000;stroke-width:0.72px;"/><path d="M458.79,32.52l0,71.82" style="fill:none;stroke:#000;stroke-width:0.72px;"/><g transform="matrix(1,0,-0.00958,1,-65.25,-261.2)"><g transform="matrix(1,0,0.00479,1,-2.79276,0)"><path d="M445.884,583.04l-2.667,-10.05l1.364,0l1.529,6.588c0.164,0.69 0.306,1.376 0.425,2.057c0.256,-1.074 0.407,-1.694 0.452,-1.858l1.913,-6.787l1.604,0l1.44,5.087c0.361,1.261 0.621,2.447 0.781,3.558c0.128,-0.636 0.295,-1.365 0.501,-2.187l1.577,-6.458l1.336,0l-2.755,10.05l-1.282,0l-2.119,-7.658c-0.178,-0.639 -0.283,-1.032 -0.315,-1.179c-0.105,0.462 -0.203,0.855 -0.295,1.179l-2.132,7.658l-1.357,0Z" style="fill-rule:nonzero;"/></g><g transform="matrix(1,0,0.00479,1,-2.79276,0)"><path d="M461.953,580.695l1.275,0.158c-0.201,0.745 -0.574,1.323 -1.117,1.735c-0.544,0.411 -1.239,0.617 -2.084,0.617c-1.065,0 -1.91,-0.328 -2.534,-0.984c-0.623,-0.656 -0.935,-1.576 -0.935,-2.76c0,-1.224 0.315,-2.175 0.946,-2.851c0.63,-0.677 1.448,-1.015 2.454,-1.015c0.973,0 1.769,0.331 2.386,0.994c0.617,0.663 0.925,1.595 0.925,2.797c0,0.073 -0.002,0.183 -0.007,0.329l-5.429,0c0.045,0.8 0.272,1.412 0.678,1.837c0.407,0.425 0.915,0.638 1.522,0.638c0.453,0 0.839,-0.119 1.159,-0.357c0.32,-0.237 0.574,-0.617 0.761,-1.138Zm-4.052,-1.995l4.066,0c-0.055,-0.612 -0.211,-1.071 -0.467,-1.377c-0.393,-0.476 -0.902,-0.713 -1.528,-0.713c-0.567,0 -1.044,0.189 -1.43,0.569c-0.386,0.379 -0.6,0.886 -0.641,1.521Z" style="fill-rule:nonzero;"/></g><g transform="matrix(1,0,0.00479,1,-2.79276,0)"><path d="M464.664,583.04l0,-7.28l1.11,0l0,1.103c0.284,-0.516 0.545,-0.857 0.785,-1.021c0.24,-0.165 0.504,-0.247 0.792,-0.247c0.416,0 0.839,0.133 1.268,0.398l-0.425,1.144c-0.301,-0.178 -0.603,-0.267 -0.905,-0.267c-0.269,0 -0.512,0.081 -0.726,0.243c-0.215,0.163 -0.368,0.388 -0.46,0.676c-0.137,0.438 -0.205,0.918 -0.205,1.439l0,3.812l-1.234,0Z" style="fill-rule:nonzero;"/></g><g transform="matrix(1,0,0.00479,1,-2.79276,0)"><path d="M469.36,583.04l0,-10.05l1.234,0l0,5.731l2.92,-2.961l1.597,0l-2.783,2.701l3.064,4.579l-1.521,0l-2.407,-3.723l-0.87,0.837l0,2.886l-1.234,0Z" style="fill-rule:nonzero;"/><path d="M475.779,580.867l1.22,-0.192c0.069,0.489 0.26,0.864 0.573,1.124c0.313,0.261 0.751,0.391 1.313,0.391c0.566,0 0.987,-0.115 1.261,-0.346c0.274,-0.231 0.411,-0.502 0.411,-0.813c0,-0.278 -0.121,-0.498 -0.363,-0.658c-0.169,-0.109 -0.589,-0.249 -1.261,-0.418c-0.905,-0.228 -1.532,-0.426 -1.882,-0.593c-0.35,-0.167 -0.615,-0.398 -0.795,-0.692c-0.181,-0.295 -0.271,-0.621 -0.271,-0.977c0,-0.325 0.074,-0.625 0.223,-0.902c0.148,-0.276 0.35,-0.506 0.606,-0.689c0.192,-0.141 0.454,-0.261 0.785,-0.36c0.332,-0.098 0.687,-0.147 1.066,-0.147c0.572,0 1.073,0.082 1.505,0.247c0.432,0.164 0.751,0.387 0.956,0.668c0.206,0.281 0.348,0.657 0.425,1.128l-1.206,0.164c-0.055,-0.374 -0.214,-0.667 -0.477,-0.877c-0.262,-0.21 -0.634,-0.315 -1.114,-0.315c-0.566,0 -0.971,0.093 -1.213,0.281c-0.242,0.187 -0.363,0.406 -0.363,0.658c0,0.16 0.05,0.304 0.151,0.432c0.1,0.132 0.258,0.242 0.473,0.329c0.123,0.045 0.486,0.151 1.09,0.315c0.872,0.233 1.481,0.424 1.827,0.573c0.345,0.148 0.615,0.364 0.812,0.647c0.196,0.284 0.295,0.636 0.295,1.056c0,0.411 -0.12,0.799 -0.36,1.162c-0.24,0.363 -0.586,0.645 -1.039,0.843c-0.452,0.199 -0.964,0.299 -1.535,0.299c-0.946,0 -1.667,-0.197 -2.163,-0.59c-0.496,-0.393 -0.813,-0.976 -0.95,-1.748Z" style="fill-rule:nonzero;"/><path d="M485.887,581.936l0.178,1.09c-0.347,0.073 -0.658,0.11 -0.932,0.11c-0.448,0 -0.795,-0.071 -1.042,-0.213c-0.247,-0.141 -0.421,-0.327 -0.521,-0.558c-0.101,-0.231 -0.151,-0.717 -0.151,-1.457l0,-4.189l-0.905,0l0,-0.959l0.905,0l0,-1.803l1.227,-0.741l0,2.544l1.241,0l0,0.959l-1.241,0l0,4.258c0,0.351 0.022,0.578 0.065,0.678c0.044,0.101 0.115,0.181 0.213,0.24c0.098,0.06 0.239,0.089 0.421,0.089c0.138,0 0.318,-0.016 0.542,-0.048Z" style="fill-rule:nonzero;"/><path d="M486.534,579.4c0,-1.348 0.375,-2.347 1.125,-2.996c0.626,-0.539 1.389,-0.809 2.289,-0.809c1.001,0 1.819,0.328 2.455,0.984c0.635,0.656 0.952,1.562 0.952,2.718c0,0.937 -0.14,1.674 -0.421,2.211c-0.281,0.537 -0.69,0.954 -1.227,1.251c-0.537,0.297 -1.123,0.446 -1.759,0.446c-1.019,0 -1.843,-0.327 -2.471,-0.981c-0.629,-0.653 -0.943,-1.595 -0.943,-2.824Zm1.268,0c0,0.932 0.204,1.63 0.611,2.094c0.406,0.464 0.918,0.696 1.535,0.696c0.613,0 1.122,-0.233 1.529,-0.699c0.407,-0.466 0.61,-1.177 0.61,-2.132c0,-0.901 -0.204,-1.583 -0.613,-2.047c-0.409,-0.464 -0.918,-0.696 -1.526,-0.696c-0.617,0 -1.129,0.231 -1.535,0.693c-0.407,0.461 -0.611,1.158 -0.611,2.091Z" style="fill-rule:nonzero;"/></g><g transform="matrix(1,0,0.00479,1,-2.79276,0)"><path d="M494.997,583.04l0,-6.321l-1.09,0l0,-0.959l1.09,0l0,-0.775c0,-0.489 0.043,-0.853 0.13,-1.09c0.119,-0.32 0.328,-0.579 0.627,-0.778c0.3,-0.199 0.719,-0.298 1.258,-0.298c0.348,0 0.731,0.041 1.152,0.123l-0.185,1.076c-0.256,-0.045 -0.498,-0.068 -0.727,-0.068c-0.375,0 -0.64,0.08 -0.795,0.24c-0.155,0.16 -0.233,0.459 -0.233,0.898l0,0.672l1.419,0l0,0.959l-1.419,0l0,6.321l-1.227,0Z" style="fill-rule:nonzero;"/></g><g transform="matrix(1,0,0.00479,1,-2.79276,0)"><path d="M498.944,583.04l0,-6.321l-1.09,0l0,-0.959l1.09,0l0,-0.775c0,-0.489 0.043,-0.853 0.13,-1.09c0.119,-0.32 0.328,-0.579 0.627,-0.778c0.3,-0.199 0.719,-0.298 1.258,-0.298c0.348,0 0.732,0.041 1.152,0.123l-0.185,1.076c-0.256,-0.045 -0.498,-0.068 -0.727,-0.068c-0.375,0 -0.64,0.08 -0.795,0.24c-0.155,0.16 -0.233,0.459 -0.233,0.898l0,0.672l1.419,0l0,0.959l-1.419,0l0,6.321l-1.227,0Z" style="fill-rule:nonzero;"/></g><g transform="matrix(1,0,0.00479,1,-2.79276,0)"><path d="M502.793,577.165l0,-1.405l1.405,0l0,1.405l-1.405,0Zm0,5.875l0,-1.405l1.405,0l0,1.405l-1.405,0Z" style="fill-rule:nonzero;"/></g><g transform="matrix(1,0,0.00479,1,-2.79276,0)"><path d="M510.309,583.04l0,-10.05l3.791,0c0.667,0 1.177,0.032 1.529,0.096c0.493,0.082 0.907,0.239 1.241,0.469c0.333,0.231 0.602,0.555 0.805,0.971c0.204,0.415 0.305,0.872 0.305,1.371c0,0.854 -0.272,1.578 -0.816,2.169c-0.543,0.592 -1.526,0.888 -2.947,0.888l-2.578,0l0,4.086l-1.33,0Zm1.33,-5.272l2.598,0c0.859,0 1.47,-0.16 1.831,-0.48c0.361,-0.32 0.541,-0.77 0.541,-1.35c0,-0.421 -0.106,-0.781 -0.319,-1.08c-0.212,-0.299 -0.492,-0.497 -0.839,-0.593c-0.224,-0.059 -0.638,-0.089 -1.241,-0.089l-2.571,0l0,3.592Z" style="fill-rule:nonzero;"/></g><g transform="matrix(1,0,0.00479,1,-2.79276,0)"><path d="M519.532,583.04l0,-10.05l2.002,0l2.379,7.116c0.219,0.663 0.379,1.158 0.48,1.488c0.114,-0.366 0.292,-0.903 0.535,-1.612l2.406,-6.992l1.789,0l0,10.05l-1.282,0l0,-8.412l-2.92,8.412l-1.2,0l-2.907,-8.556l0,8.556l-1.282,0Z" style="fill-rule:nonzero;"/></g><g transform="matrix(1,0,0.00479,1,-2.79276,0)"><path d="M531.078,583.04l0,-10.05l2.002,0l2.379,7.116c0.219,0.663 0.379,1.158 0.479,1.488c0.115,-0.366 0.293,-0.903 0.535,-1.612l2.406,-6.992l1.79,0l0,10.05l-1.282,0l0,-8.412l-2.921,8.412l-1.199,0l-2.907,-8.556l0,8.556l-1.282,0Z" style="fill-rule:nonzero;"/></g><g transform="matrix(1,0,0.00479,1,-2.79276,0)"><path d="M541.611,583.04l3.859,-10.05l1.433,0l4.113,10.05l-1.515,0l-1.172,-3.044l-4.202,0l-1.104,3.044l-1.412,0Zm2.9,-4.127l3.407,0l-1.049,-2.783c-0.32,-0.846 -0.558,-1.54 -0.713,-2.084c-0.128,0.644 -0.309,1.284 -0.542,1.919l-1.103,2.948Z" style="fill-rule:nonzero;"/></g></g><path d="M391.41,169.86l14.16,-8.16l-31.2,-18" style="fill:none;stroke:#000;stroke-width:0.72px;"/><path d="M396.12,157.02c-2.601,0 -4.71,2.108 -4.71,4.709c0,2.601 2.108,4.71 4.709,4.711c2.601,0.001 4.71,-2.108 4.711,-4.709c0.001,-2.601 -2.107,-4.71 -4.709,-4.711" style="fill:none;stroke:#000;stroke-width:0.72px;"/><path d="M442.47,146.04l-14.16,8.16l31.14,18" style="fill:none;stroke:#000;stroke-width:0.72px;"/><path d="M437.76,158.94c2.601,0 4.71,-2.108 4.71,-4.709c0,-2.601 -2.108,-4.71 -4.709,-4.711c-2.601,-0.001 -4.71,2.108 -4.711,4.709c-0.001,2.601 2.107,4.71 4.709,4.711" style="fill:none;stroke:#000;stroke-width:0.72px;"/><path d="M411.75,272.94l-16.38,0l8.22,14.16l18,-31.14" style="fill:none;stroke:#000;stroke-width:0.72px;"/><path d="M436.71,272.94l8.16,14.16l18,-31.14" style="fill:none;stroke:#000;stroke-width:0.72px;"/><path d="M436.668,252.95c-7.942,11.111 -7.944,26.042 -0.004,37.154" style="fill:none;stroke:#000;stroke-width:0.72px;"/><path d="M462.911,290.112c7.943,-11.11 7.946,-26.041 0.007,-37.154" style="fill:none;stroke:#000;stroke-width:0.72px;"/><path d="M81.21,119.04l43.68,0" style="fill:none;stroke:#000;stroke-width:0.72px;"/><path d="M103.05,140.88l0,-21.84l0,-21.78" style="fill:none;stroke:#000;stroke-width:0.72px;"/><path d="M405.57,119.04l-7.08,0" style="fill:none;stroke:#000;stroke-width:0.72px;"/><path d="M428.25,119.04l7.08,0" style="fill:none;stroke:#000;stroke-width:0.72px;"/><path d="M405.57,119.04l7.08,0" style="fill:none;stroke:#000;stroke-width:0.72px;"/><path d="M428.25,119.04l-7.08,0l-8.52,0" style="fill:none;stroke:#000;stroke-width:0.72px;"/></svg>